<?xml version="1.0" encoding="utf-8"?>
<!-- Generator: Adobe Illustrator 22.0.1, SVG Export Plug-In . SVG Version: 6.00 Build 0)  -->
<svg version="1.1" id="Layer_1" xmlns="http://www.w3.org/2000/svg" xmlns:xlink="http://www.w3.org/1999/xlink" x="0px" y="0px"
	 viewBox="0 0 640 480" enable-background="new 0 0 640 480" xml:space="preserve">
<g>
	<path fill="#64523E" d="M367.3,209.3c-15,15.7-13.7,24.7-29.6,30.8c-4,1.5-8.9,3.1-15.1,4.6c-3.7-11.4-12.9-22.6-22.7-22.6
		c-6.8,0-14.6,3.5-23.6,7.5c-10.6,4.7-20.3,10-23.4,12l4.1,5.6c3.2-1.7,12.3-6.2,21.4-10.2c7.9-3.4,15-6.2,19.8-6.2
		c7.8,0,12.8,8.8,15.6,15.9c-10.2,2.4-26.8,3-31.9,3c-2.3,0-3.2,0.4-4,1.1c-0.8,0.7-1.4,1.9-1.7,3.5l-0.6,2.6h5.4
		c28.1,0,54.7-4.4,71.7-14.8c2.4,0.7,4.5,1.1,7.2,1.1c9.8,0,19.9-5.3,26.2-10.2c2.3-1.7,2.8-3.3,2.8-5c0-0.8-0.1-1.6-0.2-2.3
		l-0.3-2.9c-9,7.1-16.5,12.5-25.9,12.5c-1.7,0-2.9-0.1-3.8-0.5c9.1-14.6,17.2-27.5,37.2-38.1c-2.1-1.3-5.1-3.2-6.7-4.3
		C381.5,195.7,373.8,202.5,367.3,209.3z"/>
	<path fill="#64523E" d="M336.2,213.7c-6.4,0-5.8-10.9-6.2-19.5c-22.6,2.2-36.7,8.9-52.2,17.2l1.8,6.9c14.1-8.4,27.6-13.2,42-14.7
		c0.2,8.3,3.7,19.3,13.1,19.3c10.1,0,22.3-15.8,36.7-34.3l3.8-4.9c-2-1.5-4.1-2.9-5.5-4.1C354.9,198.6,342.1,213.7,336.2,213.7z"/>
	<path fill="#64523E" d="M296.8,96.2c-3.7,0.7-6.4,1.4-9.6,1.4c-2.1,0-4.5-0.3-7.4-1c-2.2-0.5-4.5-1-7.8-1c-5.9,0-12.3,2.3-16.7,6.5
		c-8,7.6-8.4,15.8-9,23.1c-0.7,9.7-2.5,12.1-7.7,19.2c-4.3,5.8-10.2,13.4-14.7,21.4c1.4,0.7,6.2,3.2,7.8,4.1
		c5.2-7.8,12.4-17.4,17.1-24.7c4.3-6.6,6-9.5,6.3-18.3c0.1-1.5,0.1-2.9,0.2-4.4c0.4-4.6,1.6-9.2,6-13.5c3.2-3.3,7.9-4.9,12.6-4.9
		c4.5,0,7.1,1.3,11,1.3c2.8,0,4.8-0.7,6.6-1.3l1.4-0.5l-3.5,8.3l8.1,3.3c-5.2,3.2-16.5,17.1-16.5,33.6c0,5.9,0.9,11.4,2.2,16.3
		c0.1,0.5,0.4,1.1,1.3,1.1c0.8,0,1.3-0.5,1.4-1.3l0.1-1.7c0.2-5,0.6-13,2.6-20.1c3.4-12,12.5-23.3,21.6-28.7l-12.9-5.6l5.6-13.6
		L296.8,96.2z"/>
	<path fill="#64523E" d="M335.9,41.4c-4.9,0-6.2,4.7-6.2,7.4c0,2.1,0.7,4.6,3.4,4.6c2.2,0,4.9-1.6,7-3.3c2-1.7,3.4-3,3.4-4.4
		c0-1.3-1.2-2.5-3-3.3C339.2,41.8,337.6,41.4,335.9,41.4z"/>
	<polygon fill="#64523E" points="306,136.9 302.4,143.8 340.8,143.8 338,136.9 	"/>
	<path fill="#64523E" d="M261.6,73.1c2-1.2,3.8-2.9,3.8-4.7c0-0.8-0.4-1.7-1.2-2.4c-1.4-1.3-3.4-2-5-2c-3.8,0-5.7,3.5-5.7,6.8
		c0,2.5,1.2,3.9,3.5,3.9C258.3,74.6,260,74,261.6,73.1z"/>
	<path fill="#64523E" d="M485.1,211.1l3.7,2.6c0.5,0.4,0.9,0.6,1.4,0.6c0.8,0,1.3-0.7,1.3-1.3c0-0.4-0.2-0.8-0.6-1.1
		c-11-10-22.8-22.2-33.9-33.9c-8.6-9.2-17.5-19-25.3-28.9c-0.5-0.7-1-1-1.6-1c-0.9,0-1.3,0.6-1.3,1.3c0,1.1,0.7,2.3,2.6,5.5
		c5.7,9.7,12.8,19.5,21.5,28.6C462.2,193.4,473.3,202.8,485.1,211.1z"/>
	<path fill="#64523E" d="M437.8,347h-9c-2.3,0-3.9,0.8-5,2.2c-0.9,1.1-1.5,2.6-1.5,4.5v98.4c0,2,0.6,3.4,1.5,4.5
		c1.1,1.4,2.7,2.2,5,2.2h9c2.3,0,3.9-0.8,5-2.2c0.9-1.1,1.5-2.6,1.5-4.5v-98.4c0-2-0.6-3.4-1.5-4.5C441.7,347.8,440.1,347,437.8,347
		z"/>
	<path fill="#64523E" d="M282.3,114.7c0-1-0.4-2-1.6-2.7c-1.3-0.9-2.9-1.3-4.3-1.3c-3.2,0-4.4,1.9-5,3.8c-0.3,0.9-0.4,1.8-0.4,2.6
		c0,2.7,1.2,4.6,3.2,4.6C276.9,121.7,282.3,117.9,282.3,114.7z"/>
	<path fill="#64523E" d="M178.3,207.1l0.5,3.2c0.2,1.4,0.7,2.5,1.9,3c1.4,0.7,3.3,0.8,6.7,0.8c8.6,0,14.8-1.1,18.4-2
		c9.2,13.7,22,19,34.2,19c10.5,0,21.1-3.8,31.2-9.4l-1.9-6.8c-9.9,5.6-20.2,9.3-29.3,9.3c-10.2,0-19.2-4.4-26.7-15.7
		c-3.2-4.8-5.6-10.8-8.7-16.2c-3.6-6.3-7.5-9.7-14.3-9.7c-6.2,0-12.3,2.6-18.8,5.3l0.3,1.4c0.5,2.3,1.4,4,3.6,4c1,0,2-0.5,2.5-0.6
		c3.6-1.1,6.2-2.1,9.9-2.1c5.6,0,8.3,3.3,12.2,11.4l1.4,3c-3.9,1.3-13.1,2-19.9,2H178.3z"/>
	<path fill="#64523E" d="M492.6,375.4c-26.1,0-40.8,20.4-40.8,41.9c0,22.9,15.7,43.1,40.9,43.1c12.6,0,24.9-4.7,32-13.1
		c3.1-3.6,5.6-8.7,5.6-11.7c0-1.1-0.2-2-0.8-2.6c-0.6-0.8-1.5-1.2-3.1-1.2h-12.1c-2.4,0-4.1,0.9-5.3,2.7c-3.5,5.2-8.6,7.9-16.2,7.9
		c-11.3,0-18.6-8.6-19.1-18h52.5c2.3,0,4-0.5,5.1-1.7c1.3-1.2,1.9-2.9,1.9-6.2c0-9.9-3.1-20.1-9.6-27.9
		C517,380.7,506.8,375.4,492.6,375.4z M473.9,408.3c1-9.2,8.1-16.2,18.8-16.2c10.5,0,17.8,6.9,18.8,16.2H473.9z"/>
	<path fill="#64523E" d="M461.8,59.4h1.2c0,0.5-0.1,1.1-0.1,1.7c0,8.5,4.4,14.8,15.1,14.8c6.6,0,17-3.3,26.8-6.6
		c8.1-2.8,15.6-5.6,19.3-6.7v-9c-4.2,1.3-12.8,4.6-21.7,7.7c-9.3,3.2-18.5,6.2-23.8,6.2c-5.9,0-7.5-3.2-7.5-7.8
		c0-9.5,5.9-23.1,9.7-30.8h-9.1c-4.7,9.2-23.4,38.6-33.5,50.8l5.8,6.2C449.4,79.7,455.4,69.4,461.8,59.4z"/>
	<path fill="#64523E" d="M398.1,59.2c-7.6-7.3-13.4-15.6-17.1-19.6c-8.2-9-18.8-20-36.2-20c-16.9,0-28,11-31.6,20.5
		c-1.1,2.7-1.9,6-2.6,7.2c-1.7,2.7-9.1,15.4-12.2,20.5h13.9l-6.8,12.8c7.9-1.7,13.5-3,21.1-3c6.7,0,11.5,1.6,13.6,5.8
		c3.9,7.8,3.9,31.5,10.5,49.3c6.2,16.8,21.2,33.2,38.1,45.7l0.7,0.2c0.8,0,1.3-0.6,1.3-1.2c0-0.5-0.1-0.7-0.5-1.1
		c-14.1-14.1-25.6-29.8-31.8-46.9c-6.1-16.7-5.1-40.2-10.5-50.6c-3.5-6.9-11-8.7-18-8.7c-5.6,0-10.8,1.1-13.2,1.7l6.1-10.3h-10.3
		c2.2-3.8,4.5-7.4,5.6-9.5c1-1.8,1.4-4.1,2.6-7.1c3.9-9.9,12.6-16.1,23.8-16.1c14.1,0,22.4,9.1,30.6,18.2c3.8,4.2,9.9,13,17.1,19.5
		c4.9,4.5,14.2,9.5,28.6,24.4c8.3,8.6,17.9,19.7,28.1,34.6c36.3,53.2,60.2,100,73.5,136.6l-0.2,0.1c-38.1-25.9-71.1-50.3-97.8-80.5
		c-18.9-21.4-35.3-46.2-49.6-77.9c-1-2.1-1.8-4.1-2.7-6.1c-0.4-0.8-0.7-1.1-1.3-1.1c-0.8,0-1.3,0.5-1.3,1.3c0,0.8,0.4,2.6,1.2,6.2
		c7.6,32.8,28.7,62.2,51.1,86.6c22.4,24.3,47.8,45.2,68.6,60.4l16.3,46.5c0.4,1.1,0.8,2.3,0.8,3.5c0,0.8-0.2,1.5-0.7,2
		c-0.5,0.4-1.1,0.7-2.4,0.7h-4.9c-2.1,0-2.9-0.3-3.7-0.9c-0.8-0.6-1.3-1.5-1.7-2.6c-1.4-4.4-10-28.8-11.7-33.8
		c-0.3-0.9-0.8-1.2-1.4-1.2c-0.7,0-1.3,0.6-1.3,1.3c0,0.6,0.2,1.3,0.6,3.4c2.2,11.1,4.7,23.6,5.8,28.4c0.5,2.2,1,4.2,1,5.7
		c0,1.3-0.3,2.1-1.4,3.2l-5,5.1c-1.2,1.2-1.9,1.5-2.9,1.5c-1.2,0-2.2-0.8-2.6-2.9c-5.7-26.7-14.4-59.8-16.6-69
		c-0.5-2-0.9-3.2-2.1-3.2c-1.1,0-1.4,0.8-1.4,1.7c0,0.7,0.1,1.5,0.2,2.1c1.3,9.5,6.8,44,12.8,75.5c1.1,5.4,3.1,8.4,7.8,8.4
		c2.1,0,4.1-0.8,6-2.7c3.1-3.1,4-3.9,7.7-7.5c2.6-2.6,4.4-3.6,8.9-3.6h11.1c2.6,0,4.1-0.7,5.3-1.9c1.2-1.1,2-2.7,2-5
		c0-2.3-0.6-4.2-1.4-6.5c-2.9-7.7-12-33.6-14.7-40.9l0.2-0.1c9.4,7.1,23.1,16.2,29.1,16.2c1.9,0,3-0.8,3-3.8
		c0-13.8-23-70.8-75.6-149.1C429.6,79.9,405.1,65.8,398.1,59.2z"/>
	<path fill="#64523E" d="M464.2,111.4c9.5-3.9,18-6.5,25.6-6.5c10.8,0,19.6,0,34.3-3.5v-6.9c-8.3,1.5-17.1,3.3-22.8,3.3
		c-3.4,0-4.4-0.5-4.4-1.6c0-0.7,0.5-1.1,1.7-1.7c9-3.8,25.2-10.3,34.5-13.7v-9.2c-18.7,6.9-51.6,20.5-74,32.7
		C459.8,105.2,463.7,110.7,464.2,111.4z"/>
	<path fill="#64523E" d="M207.2,110.2c-10.6,12.6-16.2,22.7-25.4,45.3c1.5-0.2,3.7-0.3,6.1-0.3c1.2,0,2.2,0,3.8,0.1l1.1-2.4
		c5.2-11.1,12.2-26.2,22-37.7l3.4-4c10.1-11.8,16.3-18.8,20.2-34.9c1.4-5.7,2.5-10.8,6.3-14.5c3.5-3.3,7.8-4.7,12.3-4.7
		c3.8,0,6.6,0.9,10.6,2.6c3.7,1.6,5,1.9,9,1.9c1.3,0,2.3-0.1,3.2-0.1l-5.3,7.1l7.1,5c-9,2.6-13.7,11.3-15.3,15.3
		c-0.3,0.8-0.5,1.3-0.5,1.9c0,0.6,0.3,1.2,1.2,1.2c1,0,1.7-0.7,3-2.3c4.4-5.3,7.8-8.9,23.9-13.9L282.6,67l8.6-12.6h-8
		c-5.1,0-8.5-0.1-12.9-2.1c-6-2.8-9.1-4-14.4-4c-6.5,0-12.5,2.3-17.4,6.8c-5.6,5.2-7.4,12.1-9.4,19.7c-1.6,5.9-3.5,12.3-7.7,18.3
		C217.8,98.2,215.2,100.7,207.2,110.2z"/>
	<path fill="#64523E" d="M142.1,82c-18.4,0-26.2,8.9-26.2,14.8c-5.5,2.3-9,8.4-9,14c0,11.2,8.2,19.2,19,19.2c3.6,0,7.3-1.4,9.9-3.4
		c1.9,0.7,4.3,1,6.8,1c5.2,0,11-1.8,15.1-7.7c0.6,0.1,1.1,0.1,1.7,0.1c6.6,0,12.3-4.4,15.3-10.1c0.7-1.4,1.1-2.6,1.1-3.4
		c0-0.8-0.4-1.5-1.2-1.5c-1.1,0-1.2,1-3.1,2.7c-4.2,3.8-10.7,5.3-17.3,5.3c-3.2,4.7-7.2,7.2-11.8,7.2c-3.4,0-6-0.9-8.7-2.7
		c-2.2,2.4-4.9,3.4-7.5,3.4c-5.9,0-10.2-4.1-10.2-10.2c0-4.2,2.7-8,6.5-9.4c0.7-7.4,8.6-12.5,18.6-12.5c1.3,0,2.6,0.1,3.9,0.2
		c1.5-2.4,5.1-5,10.2-5.6c1.1-0.1,1.9-0.2,2.5-0.5c0.6-0.3,0.9-0.9,0.9-1.6c0-0.6-0.2-1.1-0.8-1.5c-0.5-0.3-1.4-0.5-2.5-0.7
		c-4.7-0.9-10.4-3.8-13.2-11c-11.4,0-19.7-9.1-19.7-19.3v-0.7c-3.8-1.5-6.3-5.1-6.3-9.4c0-5.6,4.4-10.2,10.1-10.2
		c3.4,0,6.3,1.7,8.2,4.1c1.6-0.5,3.4-0.6,5.1-0.6c8.4,0,17.5,5.3,19.2,15.7c10.8,1,13.4,10.2,14.1,14c0.4,2,0.7,3.6,2,3.6
		c1.3,0,1.7-1.5,2.1-3.5c0.8-3.9,2.3-6.9,5.1-9.3c0-9.8,7.4-18.3,17.8-18.3c1.6-3.5,5-5.9,9.2-5.9c5.6,0,10.2,4.4,10.2,10.2
		c0,3.4-1.6,6.3-4.1,8.1c0.5,2,0.9,3.7,0.9,5.3c0,6.3-3.8,10.8-10.7,13.1c-0.9,3.9-2.6,7.3-5.3,9.9c-4.5,4.4-9.1,4.4-9.1,6.2
		c0,1,0.7,1.6,2.6,1.6c8.4,0,16.5-4.7,17.5-12.4c8-2.7,12.8-10.8,12.8-17.1c0-1.7-0.1-3.1-0.8-4.4c2.2-2.1,4.7-5.7,4.7-11
		c0-4.7-2-9.4-5.6-12.9c-3.2-3.1-7.6-5.1-12.8-5.1c-7.5,0-12.4,4.1-15.2,8c-8.2,0-18.8,9.1-18.8,22.1h-1.1c-0.7-4.5-5.4-7.5-9.3-7.8
		c-3.2-9.5-10.3-17.6-22.1-17.6c-1.3,0-3,0.1-4.4,0.3c-3.5-3.2-7.3-5.1-12.6-5.1c-10.2,0-18.6,8.2-18.6,18.6
		c0,6.5,2.9,10.9,8.5,14.8l-0.1,1.2c0,8.3,9,21.2,22.4,21.2c0,2.1,2.6,5,5.6,5.5V82L142.1,82L142.1,82z"/>
	<path fill="#64523E" d="M344.4,410.8l-17.1-4.4c-7.1-1.8-10.4-3.1-10.4-7.4c0-4.2,3.8-7.6,12.5-7.6c5.1,0,9.8,1.1,12.8,4.3
		c2.5,2.6,2,4,4,5c1.2,0.6,2.6,0.6,4.7,0.6h8.5c1.4,0,2.3-0.2,3.1-1.1c0.6-0.7,1-1.7,1-3.5c0-3.9-2.5-9-7.1-12.8
		c-6-5.2-15.5-8.6-26.9-8.6c-20.6,0-34.1,9.8-34.1,25.4c0,5.6,2,10.1,5.3,13.6c3.8,4.1,9.3,7,17.3,9l17.2,4.3c4.7,1.2,9,2.7,9,6.8
		c0,6.4-6.8,8.6-14,8.6c-3.5,0-7.2-0.7-10.2-2.2c-2.1-1.1-3.9-2.5-5.2-4.6c-1.1-1.7-1.5-3-3.2-4c-1.1-0.6-2.3-0.7-4.1-0.7H298
		c-2,0-3,0.6-3.7,1.4c-0.7,0.8-0.9,2-0.9,3.2c0,3,1.1,6.8,3.5,10.2c5.7,7.7,17.7,13.8,32.9,13.8c15,0,35.9-6.2,35.9-26.4
		c0-5.2-1.5-9.6-4.3-13.2C358,416.1,352.9,413,344.4,410.8z"/>
	<path fill="#64523E" d="M172.6,83c4,5.8,10.7,17,17,31.9c1.1-1.9,4.5-6.5,5.9-7.9c-5.8-11.7-15.3-22.9-19.4-27.4L172.6,83z"/>
	<path fill="#64523E" d="M358.4,168.9c-4.5,2-14.9,5.7-25.2,5.7c-5.1,0-9.4-0.4-14.1-1.1c-5.9-0.7-11.4-1.4-16.2-1.4
		c-7.9,0-17.7,0.8-27.2,7.4l4.1,5.4c6.5-3.1,16.9-4.6,22.1-4.6c4.7,0,9.6,0.5,14.1,1.1c5.1,0.7,11.1,1.4,17.3,1.4
		c14.1,0,28-7.5,30.2-8.9C361.9,172.5,359.7,170.4,358.4,168.9z"/>
	<path fill="#64523E" d="M266.7,179.2l-4.4-5.6c-16.9,6.5-35.6,16.9-35.6,27.6c0,6.1,4.5,10.9,14.7,10.9c14.9,0,30.8-7.5,43.5-14.5
		l-1.8-2.5c-1.1-1.5-2-2-3.4-2c-0.9,0-1.9,0.4-2.7,0.7c-10.9,5.3-22.7,10.7-33.7,10.7c-6.3,0-7.9-1.9-7.9-4.7
		C235.4,192.2,256.3,183.3,266.7,179.2z"/>
	<path fill="#64523E" d="M411.4,378.2h-13.6v-24.5c0-2-0.6-3.4-1.5-4.5c-1.1-1.3-2.7-2.2-5-2.2h-8.5c-2.3,0-3.9,0.8-5,2.2
		c-0.9,1.1-1.5,2.6-1.5,4.5v24.5H372c-1.6,0-2.8,0.5-3.7,1.2c-1,0.9-1.4,2.1-1.4,3.9v5.2c0,1.8,0.4,3,1.4,3.9
		c0.9,0.8,2.1,1.2,3.7,1.2h4.2v37.5c0,9.6,2.6,15.6,7.5,20.5c4.5,4.4,10.4,7.2,20.6,7.2h6.4c1.6,0,2.8-0.5,3.7-1.2
		c1-0.9,1.6-2.1,1.6-3.9v-6.5c0-1.8-0.6-3-1.6-3.9c-0.9-0.8-2.1-1.2-3.7-1.2h-0.9c-4.1,0-6.8-1.1-8.7-2.9c-2.3-2.1-3.4-5.3-3.4-9.6
		v-36h13.7c1.6,0,2.8-0.5,3.7-1.2c1-0.9,1.4-2.1,1.4-3.9v-5.2c0-1.8-0.5-3-1.4-3.9C414.2,378.7,413,378.2,411.4,378.2z"/>
	<path fill="#64523E" d="M525.8,363.9c1.6,0,2.8-0.5,3.7-1.2c1-0.9,1.4-2.1,1.4-3.9v-7c0-2.7-0.5-4.1-1.4-5
		c-0.8-0.9-2.2-1.4-3.7-1.4c-1.2,0-2.4,0.1-4.4,0.4l-60,5.9c-1.7,0.2-2.6,0.7-3.2,1.4c-0.7,0.8-1,1.7-1,3.1v3.9
		c0,1.5,0.3,2.2,0.8,2.8c0.7,0.7,1.7,1.1,3,1.1L525.8,363.9L525.8,363.9z"/>
	<path fill="#64523E" d="M184.9,291.4c-5,2.9-11.3,4.3-16.8,4.3c-2.3,0-3.4,0.5-4.2,1.3c-0.9,0.9-1.4,2.3-1.4,4.1v2.6h1.9
		c10.1,0,19.4-1.6,29.6-9.6l33.3-26c4.7,5.4,16.7,12.9,30.8,12.9c8,0,13.1-1.9,20.5-3.8c5.7-1.4,11.3-2.7,23.5-2.7h35.3
		c18.1,0,26.8-3.8,36.4-9.2c20.9-11.7,38.7-31.6,48.8-54.4c-2.6-1.7-5.1-3.2-7.2-4.6c-11.3,23.8-28.4,41.1-46,51.1
		c-8.3,4.7-15.9,7.8-32.1,7.8h-35.1c-12.6,0-20.5,1.7-26.6,3.2c-6.6,1.7-10.8,3.5-17.5,3.5c-9.9,0-19.1-4.9-23.6-9.6l8.3-6.5
		l-4.1-5.5c-2.4,1.7-31.8,23.5-38,28.4l-0.4-0.2c0.1-1.5,0.1-2.9,0.1-4.2c0-16.5-7.7-20.5-19.3-25.2l-7.9,4.7c16,5.3,20,9.6,20,21.6
		C193.2,284.8,189.8,288.6,184.9,291.4z"/>
	<path fill="#64523E" d="M109.8,279.9c5.6,0,6.3-3.4,6.3-6.6c0-2.2-0.1-4.7-0.1-7.4c0.1-6.2,0.3-11.8,10.4-16.3
		c4.1-1.8,24-9.9,38.8-16.2c4.4-1.9,8.4-3.5,12.9-3.5c5,0,10.8,2.2,18,6.5c6.1,3.6,12.5,8.5,17.5,14.1l6.4-4.9
		c-5.5-6.5-13.1-12.3-20.7-16.8s-14.4-7.2-20.1-7.2c-2.5,0-4.5,0.5-6.2,0.9c-2,0.5-3.9,1.1-6.3,1.1c-2.8,0-5.1-0.7-8.5-4.6
		c-1.3-1.4-9.4-10.7-11.1-13.4c-0.8-1.3-2.3-3.9-2.3-6.8c0-1.3,0.2-2.8,1-4.1c7,5.4,15.7,8.7,26.2,10l-1.4-7.1
		c-15.1-4-31.2-17.3-31.2-25.9c0-1.8,0.5-3.1,1.1-4.7c5.9,5.4,19.6,11.1,27.1,11.1c4.1,0,7.4-1.4,10.5-2.6c3-1.2,6-2.4,10.1-2.4
		c9.6,0,21.5,4.6,32,9.1c0.6,0.2,1.3,0.4,1.9,0.4c1.7,0,2.9-0.8,3.8-2.3l1.4-2.5c-11.5-6.7-29.9-13.8-39.4-13.8
		c-4.4,0-7.5,1.1-10.5,2.3c-3.4,1.3-6.3,2.8-9.4,2.8c-7.6,0-27.1-7.5-27.1-14.8c0-8.6,31-11.9,34.4-11.9l3.1-7
		c-22.5,0-49.3,7.9-49.3,18.3c0,3,1.7,4.5,1.7,7.3c0,3.8-1.7,6.3-1.7,10.5c0,2.8,1.7,6.3,3.6,9.4c2.1,3.2,4.6,5.3,4.6,8.1
		c0,2-1.4,4.4-1.4,9.2c0,10.2,5.8,16.3,17.1,28.4l2.3,2.4c-9.3,3.6-26.7,11.1-30.8,12.9c-14,5.8-17.5,13-17.5,24.3
		c0,4.4,0,9.3,0.3,13.7H109.8L109.8,279.9z"/>
	<path fill="#64523E" d="M204.6,45.7c0-0.6-0.5-1.2-1.3-1.2c-0.7,0-1.1,0.5-1.7,1c-2.9,2.5-5.4,5-8.1,8c-3.8,4.3-7.1,10-9.7,16.2
		l4.1,2.5c2.8-4.1,11.7-18.3,16.3-25.4C204.4,46.4,204.6,46,204.6,45.7z"/>
	<path fill="#64523E" d="M361.2,362.7c1-0.9,1.4-2.1,1.4-3.9v-6.6c0-1.8-0.5-3-1.4-3.9c-0.9-0.8-2.1-1.2-3.7-1.2H186.1
		c-2.9,0-4.7,1-5.9,2.5c-1.1,1.3-1.7,2.7-1.7,5.2V423h-0.4c0,0-37.4-66.6-39.2-69.7c-1.3-2.2-2.7-3.7-4.6-4.8
		c-1.9-1.1-3.8-1.7-7.6-1.7h-12.3c-2.9,0-4.7,1-5.9,2.5c-1.1,1.3-1.7,2.7-1.7,5.2v96.8c0,2.5,0.6,3.9,1.7,5.2
		c1.3,1.5,3.1,2.5,5.9,2.5h7c2.9,0,4.7-1,5.9-2.5c1.1-1.3,1.7-2.7,1.7-5.2v-69.9h0.4c0,0,38.8,68.7,40.4,71.3
		c2.2,3.6,5.9,6.3,11.1,6.3h12c2.9,0,4.6-1,5.9-2.5c1.1-1.3,1.7-2.7,1.7-5.2v-87.3h157.1C359.1,363.9,360.3,363.4,361.2,362.7z"/>
	<path fill="#64523E" d="M248.7,375.4c-26.1,0-40.8,20.4-40.8,41.9c0,22.9,15.7,43.1,40.9,43.1c12.6,0,24.9-4.7,32-13.1
		c3.1-3.6,5.6-8.7,5.6-11.7c0-1.1-0.2-2-0.8-2.6c-0.6-0.8-1.5-1.2-3.1-1.2h-12.1c-2.4,0-4.1,0.9-5.3,2.7c-3.5,5.2-8.7,7.9-16.2,7.9
		c-11.3,0-18.6-8.6-19.1-18h52.3c2.3,0,4-0.5,5.1-1.7c1.3-1.2,1.9-2.9,1.9-6.2c0-9.9-3.1-20.1-9.6-27.9
		C273,380.7,262.9,375.4,248.7,375.4z M230,408.3c1-9.2,8-16.2,18.8-16.2c10.5,0,17.8,6.9,18.8,16.2H230z"/>
	<path fill="#64523E" d="M133.6,106.5c0,0.5,0.4,1.2,1.2,1.2c0.5,0,1-0.2,2-0.6l27.5-9.3l-1.3-4.5c-11.2,1.9-19.3,4.7-28.6,12
		C133.9,105.7,133.6,106,133.6,106.5z"/>
	<path fill="#64523E" d="M150.3,52.8c-4.2-3.2-8.9-5.9-14.5-8.1l-1-0.2c-0.8,0-1.2,0.6-1.2,1.1c0,0.5,0.1,0.8,0.8,1.4
		c6.5,5.6,19.2,16.2,23.1,19.4l3.1-3.6C157.3,58.8,153.8,55.5,150.3,52.8z"/>
</g>
<rect x="76.4" y="1.6" fill="none" width="487.1" height="476.9"/>
</svg>
