<svg xmlns="http://www.w3.org/2000/svg" version="1.1" xmlns:xlink="http://www.w3.org/1999/xlink" xmlns:svgjs="http://svgjs.dev/svgjs" width="128" height="128" viewBox="0 0 128 128"><g transform="matrix(0.8046875,0,0,0.8046875,12.79167944520762,14.446477080967469)"><svg viewBox="0 0 95 92" data-background-color="#5e81ac" preserveAspectRatio="xMidYMid meet" height="123" width="128" xmlns="http://www.w3.org/2000/svg" xmlns:xlink="http://www.w3.org/1999/xlink"><g id="tight-bounds" transform="matrix(1,0,0,1,-0.24049999999998306,0.06275086107217476)"><svg viewBox="0 0 95.48099999999998 91.87449827785565" height="91.87449827785565" width="95.48099999999998"><g><svg viewBox="0 0 95.48099999999998 91.87449827785565" height="91.87449827785565" width="95.48099999999998"><g><svg viewBox="0 0 95.48099999999998 91.87449827785565" height="91.87449827785565" width="95.48099999999998"><g id="textblocktransform"><svg viewBox="0 0 95.48099999999998 91.87449827785565" height="91.87449827785565" width="95.48099999999998" id="textblock"><g><svg viewBox="0 0 95.48099999999998 91.87449827785565" height="91.87449827785565" width="95.48099999999998"><g><svg viewBox="0 0 95.48099999999998 91.87449827785565" height="91.87449827785565" width="95.48099999999998"><g><svg xmlns="http://www.w3.org/2000/svg" data-name="Layer 1" viewBox="5.339993939288168 7.08 89.22001212142368 85.85000000000001" x="0" y="0" height="91.87449827785565" width="95.48099999999998" class="icon-icon-0" data-fill-palette-color="accent" id="icon-0"><path d="M50 7.08A8.6 8.6 0 0 0 47.52 7.45L39.73 9.78 30.78 12.47V35L20.84 36.88V15.46L12.14 18.08 8.48 19.18A4.4 4.4 0 0 0 5.34 23.4V76.6A4.4 4.4 0 0 0 8.47 80.82L47.47 92.56A8.6 8.6 0 0 0 49.95 92.93 8.6 8.6 0 0 0 52.43 92.56L91.43 80.82A4.4 4.4 0 0 0 94.56 76.6V23.4A4.4 4.4 0 0 0 91.43 19.18L52.43 7.44A8.6 8.6 0 0 0 50 7.08M54.4 17.22L85.85 26.68V73.32L54.4 82.78ZM79.45 46.16A10 10 0 0 1 79.53 47.41 10 10 0 0 1 79.45 48.65 9 9 0 0 1 79.22 49.82 8 8 0 0 1 78.84 50.91 6.7 6.7 0 0 1 78.32 51.91L72.2 61.41 72.09 61.56 71.96 61.67 71.82 61.75H71.38L71.25 61.67 71.14 61.55 63.73 52.09A7.6 7.6 0 0 1 63 50.89 8.6 8.6 0 0 1 62.44 49.56 9.4 9.4 0 0 1 62.09 48.1 10 10 0 0 1 62 46.56 10 10 0 0 1 62.07 45 9 9 0 0 1 62.41 43.58 8 8 0 0 1 63 42.34 6.7 6.7 0 0 1 63.75 41.24 5.6 5.6 0 0 1 64.64 40.39 4.6 4.6 0 0 1 65.64 39.82 4.06 4.06 0 0 1 67.76 39.53 4.3 4.3 0 0 1 68.81 39.81 5 5 0 0 1 69.81 40.34 6 6 0 0 1 70.69 41.1 7 7 0 0 1 71.46 42.1L71.74 42.52 72.01 42.17A5 5 0 0 1 72.75 41.38 3.8 3.8 0 0 1 73.57 40.85 3.2 3.2 0 0 1 74.44 40.58 3 3 0 0 1 75.34 40.58 3.3 3.3 0 0 1 76.22 40.82 4 4 0 0 1 77.03 41.29 5 5 0 0 1 77.76 41.98 6.3 6.3 0 0 1 78.4 42.86 7.5 7.5 0 0 1 78.92 43.86 8.5 8.5 0 0 1 79.22 45 9 9 0 0 1 79.45 46.16" fill="#ffffff" data-fill-palette-color="accent"></path></svg></g></svg></g></svg></g></svg></g></svg></g></svg></g><defs></defs></svg><rect width="95.48099999999998" height="91.87449827785565" fill="none" stroke="none" visibility="hidden"></rect></g></svg></g></svg>