<?xml version="1.0" encoding="utf-8"?>
<!-- Generator: Adobe Illustrator 26.0.3, SVG Export Plug-In . SVG Version: 6.00 Build 0)  -->
<svg version="1.0" id="Layer_1" xmlns="http://www.w3.org/2000/svg" xmlns:xlink="http://www.w3.org/1999/xlink" x="0px" y="0px"
	 width="800px" height="800px" viewBox="0 0 800 800" enable-background="new 0 0 800 800" xml:space="preserve">
<g>
	<path fill-rule="evenodd" clip-rule="evenodd" d="M50.777,90.553c18.524,8.566,37.044,17.141,55.572,25.697
		c91.32,42.178,182.642,84.352,273.962,126.53c0.478,0.222,0.942,0.469,1.676,0.835c-41.067,28.91-81.947,57.689-122.917,86.529
		c-5.495-4.521-10.953-9.009-16.406-13.503c-37.91-31.235-75.818-62.471-113.729-93.704c-16.106-13.269-32.228-26.52-48.293-39.839
		c-0.909-0.752-1.642-1.958-2-3.099c-9.199-29.291-18.336-58.601-27.489-87.906c-0.087-0.281-0.249-0.539-0.375-0.809
		C50.777,91.041,50.777,90.798,50.777,90.553z"/>
	<path fill-rule="evenodd" clip-rule="evenodd" d="M411.904,273.268c6.639,5.196,12.881,10.081,19.121,14.967
		c30.168,23.625,60.332,47.261,90.531,70.851c1.242,0.971,1.516,1.868,1.246,3.377c-3.896,21.782-7.729,43.578-11.572,65.368
		c-3.717,21.072-7.428,42.145-11.146,63.215c-3.729,21.132-7.459,42.263-11.191,63.393c-3.85,21.791-7.703,43.581-11.551,65.372
		c-3.721,21.071-7.438,42.143-11.15,63.216c-2.975,16.868-5.924,33.743-8.939,50.604c-0.145,0.814-0.615,1.762-1.24,2.271
		c-13.213,10.737-26.467,21.422-39.717,32.113c-0.41,0.33-0.852,0.621-1.705,1.237c0-2.876,0.006-5.357,0-7.837
		c-0.041-14.894-0.059-29.786-0.129-44.681c-0.1-21.482-0.236-42.964-0.359-64.444c-0.123-21.422-0.246-42.841-0.365-64.261
		c-0.123-21.606-0.244-43.212-0.367-64.817c-0.121-21.361-0.244-42.722-0.367-64.082c-0.123-21.665-0.242-43.331-0.365-64.996
		c-0.121-21.299-0.236-42.599-0.369-63.898c-0.111-18.185-0.242-36.371-0.363-54.556C411.9,275.025,411.904,274.369,411.904,273.268
		z"/>
	<path fill-rule="evenodd" clip-rule="evenodd" d="M386.875,272.414c0,5.909,0.021,11.393-0.003,16.878
		c-0.072,16.421-0.164,32.838-0.242,49.258c-0.124,26.002-0.236,52.004-0.37,78.005c-0.109,21.362-0.242,42.725-0.362,64.087
		c-0.123,21.728-0.244,43.456-0.368,65.185c-0.12,21.303-0.245,42.603-0.364,63.904c-0.125,21.851-0.241,43.7-0.369,65.551
		c-0.115,19.531-0.238,39.062-0.366,58.594c-0.071,10.922-0.16,21.846-0.246,32.769c-0.003,0.407-0.054,0.812-0.107,1.561
		c-2.85-2.299-5.49-4.418-8.12-6.549c-10.861-8.796-21.733-17.575-32.55-26.426c-0.761-0.623-1.427-1.697-1.6-2.658
		c-3.653-20.463-7.224-40.942-10.82-61.417c-3.703-21.076-7.414-42.15-11.119-63.225c-3.747-21.315-7.484-42.629-11.236-63.942
		c-3.975-22.576-7.97-45.147-11.94-67.724c-4.212-23.955-8.399-47.914-12.607-71.87c-2.489-14.171-4.979-28.343-7.523-42.502
		c-0.304-1.691-0.135-2.776,1.406-3.984c35.745-27.996,71.427-56.071,107.122-84.132
		C385.598,273.376,386.119,272.99,386.875,272.414z"/>
	<path fill-rule="evenodd" clip-rule="evenodd" d="M749.223,91.42c-1.416,4.573-2.662,8.635-3.932,12.691
		c-8.006,25.646-16.01,51.291-24.068,76.92c-0.324,1.021-1.02,2.088-1.844,2.768c-38.543,31.814-77.117,63.591-115.691,95.366
		c-20.393,16.801-40.807,33.575-61.164,50.419c-1.217,1.008-1.922,0.864-3.088,0.043c-33.299-23.486-66.625-46.938-99.945-70.394
		c-6.785-4.775-13.568-9.553-20.35-14.332c-0.193-0.136-0.361-0.305-0.797-0.675C528.602,193.308,638.682,142.47,749.223,91.42z"/>
	<path fill-rule="evenodd" clip-rule="evenodd" d="M414.91,210.806c0-33.309,0-66.264,0-99.276
		c7.574-2.476,15.092-4.944,22.619-7.391c26.537-8.625,53.076-17.24,79.615-25.86c38.59-12.534,77.182-25.067,115.77-37.605
		c9.502-3.088,18.992-6.216,28.508-9.261c0.979-0.312,2.188-0.477,3.145-0.206c25.203,7.14,50.385,14.345,75.572,21.542
		c0.393,0.112,0.775,0.263,1.564,0.533C632.617,105.864,523.873,158.283,414.91,210.806z"/>
	<path fill-rule="evenodd" clip-rule="evenodd" d="M385.165,210.222C276.048,157.726,167.292,105.403,58.157,52.899
		c0.95-0.327,1.539-0.56,2.146-0.734C85.089,45.087,109.873,38,134.677,30.983c1.141-0.323,2.56-0.315,3.684,0.048
		c45.329,14.662,90.637,29.388,135.952,44.094c36.04,11.696,72.084,23.379,108.127,35.067c2.722,0.883,2.725,0.877,2.725,3.675
		c0,31.255,0,62.512,0,93.768C385.165,208.36,385.165,209.086,385.165,210.222z"/>
</g>
</svg>
