<svg xmlns="http://www.w3.org/2000/svg" version="1.1" xmlns:xlink="http://www.w3.org/1999/xlink" xmlns:svgjs="http://svgjs.dev/svgjs" width="1500" height="1500" viewBox="0 0 1500 1500"><rect width="1500" height="1500" fill="#5e81ac"></rect><g transform="matrix(0.6666666666666666,0,0,0.6666666666666666,249.39393939393938,578.4216064381644)"><svg viewBox="0 0 396 136" data-background-color="#5e81ac" preserveAspectRatio="xMidYMid meet" height="515" width="1500" xmlns="http://www.w3.org/2000/svg" xmlns:xlink="http://www.w3.org/1999/xlink"><g id="tight-bounds" transform="matrix(1,0,0,1,0.2400000000000091,-0.034966433758341964)"><svg viewBox="0 0 395.52 136.06989001037246" height="136.06989001037246" width="395.52"><g><svg viewBox="0 0 658.0250331068902 226.3789286987415" height="136.06989001037246" width="395.52"><g transform="matrix(1,0,0,1,262.5050331068902,56.30968475159761)"><svg viewBox="0 0 395.52 113.75955919554629" height="113.75955919554629" width="395.52"><g id="textblocktransform"><svg viewBox="0 0 395.52 113.75955919554629" height="113.75955919554629" width="395.52" id="textblock"><g><svg viewBox="0 0 395.52 76.51371678643474" height="76.51371678643474" width="395.52"><g transform="matrix(1,0,0,1,0,0)"><svg width="395.52" viewBox="1.5 -37 250.604921875 48" height="76.51371678643474" data-palette-color="#ffffff"><g transform="matrix(1,0,0,1,0,0)"><g><svg width="16.88328125" viewBox="1.78 -36.36 74.21 36.36" height="8.272" data-palette-color="#ffffff" id="scriptelement" x="235.221640625" y="-37"><path d="M12.91-30.02L1.78-30.02 1.78-36.36 31.64-36.36 31.64-30.02 20.51-30.02 20.51 0 12.91 0 12.91-30.02ZM36.57 0L36.57-36.36 46.06-36.36 56.07-11.93 56.5-11.93 66.51-36.36 75.99-36.36 75.99 0 68.53 0 68.53-23.67 68.23-23.67 58.82-0.18 53.74-0.18 44.33-23.76 44.03-23.76 44.03 0 36.57 0Z" opacity="1" transform="matrix(1,0,0,1,0,0)" fill="#ffffff" class="undefined-123" data-fill-palette-color="primary" id="tk-123"></path></svg></g></g><g class="wordmark-text-0" data-fill-palette-color="primary" id="text-0"><path d="M13.2 0.6L13.2 0.6Q9.55 0.6 6.55-0.38 3.55-1.35 1.5-2.95L1.5-2.95 3.9-6.95Q5.7-5.45 7.95-4.5 10.2-3.55 13.2-3.55L13.2-3.55Q16.8-3.55 18.9-5.05 21-6.55 21-9.1L21-9.1Q21-10.55 20.4-11.68 19.8-12.8 18.07-13.88 16.35-14.95 13-16.2L13-16.2Q9.4-17.6 7.25-19.03 5.1-20.45 4.17-22.28 3.25-24.1 3.25-26.6L3.25-26.6Q3.25-29.1 4.63-31.13 6-33.15 8.68-34.38 11.35-35.6 15.15-35.6L15.15-35.6Q18.25-35.6 20.73-34.98 23.2-34.35 25.55-33.2L25.55-33.2 23.8-29.15Q22.1-30.15 19.83-30.83 17.55-31.5 15.05-31.5L15.05-31.5Q11.75-31.5 9.85-30.2 7.95-28.9 7.95-26.85L7.95-26.85Q7.95-25.55 8.5-24.55 9.05-23.55 10.68-22.6 12.3-21.65 15.55-20.45L15.55-20.45Q19.45-19 21.73-17.4 24-15.8 24.95-13.93 25.9-12.05 25.9-9.65L25.9-9.65Q25.9-6.4 24.28-4.1 22.65-1.8 19.78-0.6 16.9 0.6 13.2 0.6ZM36.9 0L32.4 0 32.4-37 36.9-37 36.9-21.85Q38.3-23.9 40.45-25.25 42.6-26.6 45.5-26.6L45.5-26.6Q49.9-26.6 52.07-23.95 54.25-21.3 54.25-16.95L54.25-16.95 54.25 0 49.75 0 49.75-16.45Q49.75-19.25 48.45-20.95 47.15-22.65 44.8-22.65L44.8-22.65Q42.5-22.65 40.42-21.03 38.35-19.4 36.9-17.2L36.9-17.2 36.9 0ZM72.95 0.6L72.95 0.6Q69.25 0.6 66.3-1.13 63.35-2.85 61.67-5.93 60-9 60-13L60-13Q60-17.2 61.7-20.25 63.4-23.3 66.34-24.95 69.3-26.6 72.95-26.6L72.95-26.6Q76.59-26.6 79.52-24.95 82.45-23.3 84.17-20.28 85.9-17.25 85.9-13.1L85.9-13.1Q85.9-8.95 84.2-5.88 82.5-2.8 79.57-1.1 76.65 0.6 72.95 0.6ZM72.95-3.4L72.95-3.4Q76.9-3.4 79.09-6.08 81.3-8.75 81.3-13L81.3-13Q81.3-15.6 80.2-17.78 79.09-19.95 77.22-21.28 75.34-22.6 72.95-22.6L72.95-22.6Q69-22.6 66.8-20 64.59-17.4 64.59-13.1L64.59-13.1Q64.59-10.5 65.7-8.28 66.8-6.05 68.67-4.73 70.55-3.4 72.95-3.4ZM97.34 11L92.84 11 92.84-19.35Q92.84-21.05 92.02-21.78 91.19-22.5 89.89-22.5L89.89-22.5 90.84-26Q95.44-26 96.59-22.35L96.59-22.35Q97.09-23.1 98.22-24.1 99.34-25.1 101.02-25.85 102.69-26.6 104.84-26.6L104.84-26.6Q107.84-26.6 110.47-25.03 113.09-23.45 114.69-20.48 116.29-17.5 116.29-13.25L116.29-13.25Q116.29-9.1 114.69-5.98 113.09-2.85 110.52-1.13 107.94 0.6 104.94 0.6L104.94 0.6Q102.64 0.6 100.64-0.33 98.64-1.25 97.34-2.45L97.34-2.45 97.34 11ZM104.04-3.4L104.04-3.4Q107.44-3.4 109.57-6.08 111.69-8.75 111.69-13.1L111.69-13.1Q111.69-16.1 110.62-18.25 109.54-20.4 107.77-21.55 105.99-22.7 103.84-22.7L103.84-22.7Q101.69-22.7 99.97-21.63 98.24-20.55 97.34-19.3L97.34-19.3 97.34-6.5Q98.64-5.15 100.34-4.28 102.04-3.4 104.04-3.4ZM134.69 0L128.79 0 119.29-33.85 123.99-35.35 131.89-5.05 139.34-31.35 145.29-31.35 152.69-5.05 160.54-35.2 164.94-33.85 155.49 0 149.59 0 142.19-26.3 134.69 0ZM174.19 0L169.69 0 169.69-26 174.19-26 174.19 0ZM171.94-30.45L171.94-30.45Q170.64-30.45 169.71-31.4 168.79-32.35 168.79-33.6L168.79-33.6Q168.79-35.05 169.64-35.9 170.49-36.75 171.94-36.75L171.94-36.75Q173.24-36.75 174.16-35.83 175.09-34.9 175.09-33.6L175.09-33.6Q175.09-32.2 174.24-31.33 173.39-30.45 171.94-30.45ZM189.19 0.6L189.19 0.6Q186.24 0.6 183.86-0.15 181.49-0.9 179.94-2.1L179.94-2.1 181.84-5.85Q183.14-4.75 185.11-4.03 187.09-3.3 189.34-3.3L189.34-3.3Q192.14-3.3 193.56-4.23 194.99-5.15 194.99-6.6L194.99-6.6Q194.99-7.65 194.46-8.45 193.94-9.25 192.54-10.03 191.14-10.8 188.49-11.7L188.49-11.7Q184.84-12.95 183.01-14.68 181.19-16.4 181.19-19.45L181.19-19.45Q181.19-22.45 183.81-24.53 186.44-26.6 191.09-26.6L191.09-26.6Q193.59-26.6 195.54-26.08 197.49-25.55 199.04-24.75L199.04-24.75 197.79-21.05Q196.44-21.85 194.71-22.35 192.99-22.85 190.89-22.85L190.89-22.85Q188.29-22.85 186.94-21.8 185.59-20.75 185.59-19.5L185.59-19.5Q185.59-18.3 186.64-17.45 187.69-16.6 190.74-15.6L190.74-15.6Q195.69-13.95 197.64-11.95 199.59-9.95 199.59-6.95L199.59-6.95Q199.59-3.45 196.76-1.43 193.94 0.6 189.19 0.6ZM215.98 0.6L215.98 0.6Q210.38 0.6 207.11-2.98 203.83-6.55 203.83-13L203.83-13Q203.83-16.9 205.31-19.98 206.78-23.05 209.43-24.83 212.08-26.6 215.58-26.6L215.58-26.6Q219.33-26.6 221.81-24.98 224.28-23.35 225.53-20.6 226.78-17.85 226.78-14.55L226.78-14.55Q226.78-12.8 226.63-11.15L226.63-11.15 208.43-11.15Q208.88-7.5 210.98-5.45 213.08-3.4 216.53-3.4L216.53-3.4Q218.78-3.4 220.58-3.88 222.38-4.35 224.03-5.1L224.03-5.1 225.08-1.25Q223.28-0.45 221.03 0.08 218.78 0.6 215.98 0.6ZM208.38-14.8L208.38-14.8 222.63-14.8Q222.63-18.6 220.73-20.65 218.83-22.7 215.48-22.7L215.48-22.7Q212.58-22.7 210.68-20.68 208.78-18.65 208.38-14.8Z" fill="#ffffff" data-fill-palette-color="primary"></path></g></svg></g></svg></g><g transform="matrix(1,0,0,1,0,94.57676899050911)"><svg viewBox="0 0 232.209792 19.18279020503718" height="19.18279020503718" width="232.209792"><g transform="matrix(1,0,0,1,0,0)"><svg width="232.209792" viewBox="4.54 -32.4 508.86999999999995 42.04" height="19.18279020503718" data-palette-color="#ffffff"><path d="M22.75-22.75L22.75-19.9 13.06-19.9 13.06-2.86 18.19-2.86 18.19 0 4.54 0 4.54-2.86 9.69-2.86 9.69-19.9 4.54-19.9 4.54-22.75 9.69-22.75Q9.69-27.44 12.12-29.92 14.55-32.4 19.46-32.4L19.46-32.4Q20.61-32.4 21.4-32.32 22.19-32.25 22.75-32.15L22.75-32.15 22.75-29.3Q22.05-29.39 21.28-29.47 20.51-29.54 19.46-29.54L19.46-29.54Q16.26-29.54 14.66-27.92 13.06-26.29 13.06-22.75L13.06-22.75 22.75-22.75ZM50.63-11.3L50.63-11.3Q50.63-8.64 49.79-6.47 48.95-4.3 47.37-2.75 45.8-1.2 43.6-0.32 41.4 0.56 38.69 0.56L38.69 0.56Q36.03 0.56 33.84-0.32 31.64-1.2 30.06-2.75 28.49-4.3 27.65-6.47 26.8-8.64 26.8-11.3L26.8-11.3Q26.8-13.89 27.65-16.13 28.49-18.36 30.06-19.93 31.64-21.51 33.84-22.4 36.03-23.29 38.69-23.29L38.69-23.29Q41.4-23.29 43.6-22.4 45.8-21.51 47.37-19.93 48.95-18.36 49.79-16.13 50.63-13.89 50.63-11.3ZM47.29-11.3L47.29-11.3Q47.29-13.26 46.71-14.9 46.14-16.55 45.02-17.8 43.89-19.04 42.29-19.75 40.7-20.46 38.69-20.46L38.69-20.46Q36.69-20.46 35.09-19.75 33.49-19.04 32.39-17.8 31.3-16.55 30.72-14.9 30.15-13.26 30.15-11.3L30.15-11.3Q30.15-9.35 30.72-7.7 31.3-6.05 32.39-4.86 33.49-3.66 35.09-2.98 36.69-2.29 38.69-2.29L38.69-2.29Q40.7-2.29 42.29-2.98 43.89-3.66 45.02-4.86 46.14-6.05 46.71-7.7 47.29-9.35 47.29-11.3ZM77.19-22.29L76.09-19.56Q74.29-20.46 71.8-20.46L71.8-20.46Q69.75-20.46 68.13-19.58 66.52-18.7 65.4-17.27 64.28-15.84 63.68-14 63.08-12.16 63.08-10.21L63.08-10.21 63.08-2.86 68.23-2.86 68.23 0 54.58 0 54.58-2.86 59.74-2.86 59.74-19.9 54.58-19.9 54.58-22.75 63.08-22.75 63.08-17.04Q65.38-23.29 71.8-23.29L71.8-23.29Q73.53-23.29 74.81-23.07 76.09-22.85 77.19-22.29L77.19-22.29ZM109.17-11.35L109.17-11.35Q109.17-13.94 110-16.15 110.83-18.36 112.32-19.96 113.81-21.56 115.94-22.42 118.08-23.29 120.72-23.29L120.72-23.29Q124.26-23.29 127.36-20.65L127.36-20.65 127.36-22.75 130.73-22.75 130.73 9.11 127.36 9.11 127.36-2.05Q125.92-0.76 124.22-0.1 122.52 0.56 120.72 0.56L120.72 0.56Q118.08 0.56 115.94-0.32 113.81-1.2 112.32-2.77 110.83-4.35 110-6.52 109.17-8.69 109.17-11.35ZM112.51-11.35L112.51-11.35Q112.51-9.45 113.04-7.8 113.56-6.15 114.61-4.93 115.66-3.71 117.19-3 118.72-2.29 120.72-2.29L120.72-2.29Q122.62-2.29 124.27-2.98 125.92-3.66 127.36-5.25L127.36-5.25 127.36-17.46Q125.92-19.04 124.27-19.75 122.62-20.46 120.72-20.46L120.72-20.46Q118.72-20.46 117.19-19.75 115.66-19.04 114.61-17.82 113.56-16.6 113.04-14.93 112.51-13.26 112.51-11.35ZM137.66-8.69L137.66-22.75 141-22.75 141-8.69Q141-5.64 142.33-3.97 143.66-2.29 146.62-2.29L146.62-2.29Q148.47-2.29 149.96-3.15 151.45-4 152.5-5.43 153.55-6.86 154.1-8.7 154.65-10.55 154.65-12.55L154.65-12.55 154.65-22.75 158.02-22.75 158.02 0 154.65 0 154.65-5.69Q152.26 0.56 146.06 0.56L146.06 0.56Q137.66 0.56 137.66-8.69L137.66-8.69ZM163.71-6.15L163.71-6.15Q163.71-8.3 164.78-9.75 165.85-11.21 167.6-12.05 169.35-12.89 171.6-13.27 173.86-13.65 176.21-13.65L176.21-13.65Q177.11-13.65 177.83-13.62 178.55-13.6 179.2-13.55 179.84-13.5 180.5-13.43 181.16-13.35 181.94-13.26L181.94-13.26 181.94-14.89Q181.94-16.55 181.22-17.63 180.5-18.7 179.45-19.32 178.4-19.95 177.26-20.2 176.11-20.46 175.3-20.46L175.3-20.46Q172.76-20.46 170.61-19.78 168.47-19.09 166.61-17.94L166.61-17.94 165.1-20.46Q167.15-21.7 169.7-22.5 172.25-23.29 175.3-23.29L175.3-23.29Q177.16-23.29 178.95-22.81 180.75-22.34 182.17-21.35 183.6-20.36 184.46-18.75 185.31-17.14 185.31-14.89L185.31-14.89 185.31 0 181.94 0 181.94-3.81Q181.06-2.71 179.95-1.88 178.84-1.05 177.62-0.52 176.4 0 175.18 0.28 173.96 0.56 172.86 0.56L172.86 0.56Q168.34 0.56 166.03-1.17 163.71-2.91 163.71-6.15ZM172.86-2.29L172.86-2.29Q174.96-2.29 176.63-2.92 178.31-3.54 179.48-4.47 180.65-5.4 181.3-6.45 181.94-7.5 181.94-8.35L181.94-8.35 181.94-10.5Q180.31-10.74 178.81-10.77 177.3-10.79 176.21-10.79L176.21-10.79Q174.4-10.79 172.73-10.55 171.05-10.3 169.81-9.75 168.56-9.2 167.81-8.33 167.05-7.45 167.05-6.15L167.05-6.15Q167.05-4.71 168.45-3.5 169.86-2.29 172.86-2.29ZM209.24-2.86L209.24 0 195.59 0 195.59-2.86 200.74-2.86 200.74-29 195.59-29 195.59-31.86 204.11-31.86 204.11-2.86 209.24-2.86ZM231.99-31.86L231.99-27.29 227.45-27.29 227.45-31.86 231.99-31.86ZM236.53-2.86L236.53 0 222.88 0 222.88-2.86 228.03-2.86 228.03-19.9 222.88-19.9 222.88-22.75 231.4-22.75 231.4-2.86 236.53-2.86ZM265.82-7.86L268.63-7.25Q268.24-3.66 265.81-1.55 263.38 0.56 259.74 0.56L259.74 0.56Q257.74 0.56 256.08-0.1 254.42-0.76 253.25-1.93 252.08-3.1 251.43-4.75 250.78-6.4 250.78-8.35L250.78-8.35 250.78-19.9 245.63-19.9 245.63-22.75 250.78-22.75 250.78-31.86 254.13-31.86 254.13-22.75 263.82-22.75 263.82-19.9 254.13-19.9 254.13-8.35Q254.13-7.1 254.53-6.01 254.93-4.91 255.65-4.08 256.37-3.25 257.4-2.77 258.42-2.29 259.74-2.29L259.74-2.29Q262.23-2.29 263.91-3.85 265.58-5.4 265.82-7.86L265.82-7.86ZM292.38-22.75L296.39-22.75 284.08 5.76Q283.13 8.15 281.4 8.9 279.66 9.64 277.56 9.64L277.56 9.64Q275.22 9.64 272.88 8.79L272.88 8.79 273.53 5.91Q274.68 6.4 275.78 6.6 276.88 6.81 277.56 6.81L277.56 6.81Q279.22 6.81 279.85 6.01 280.47 5.2 280.93 4.1L280.93 4.1 282.32 0.66 272.17-22.75 276.12-22.75 284.33-2.86 292.38-22.75ZM349.65-6.3L349.65-6.3Q349.65-4.3 348.65-2.98 347.65-1.66 346.08-0.88 344.5-0.1 342.56 0.23 340.62 0.56 338.76 0.56L338.76 0.56Q335.66 0.56 332.59-0.34 329.51-1.25 327.26-2.71L327.26-2.71 328.75-5.59Q331.27-4 333.71-3.15 336.15-2.29 338.76-2.29L338.76-2.29Q346.31-2.29 346.31-6.2L346.31-6.2Q346.31-7.15 345.69-7.75 345.06-8.35 344.01-8.73 342.96-9.11 341.61-9.33 340.25-9.55 338.76-9.74L338.76-9.74Q336.86-10.01 334.98-10.38 333.1-10.74 331.55-11.47 330-12.21 329.06-13.43 328.12-14.65 328.12-16.65L328.12-16.65Q328.12-18.36 328.99-19.6 329.85-20.85 331.31-21.68 332.76-22.51 334.71-22.9 336.66-23.29 338.76-23.29L338.76-23.29Q341.77-23.29 344.14-22.6 346.5-21.9 348.41-20.61L348.41-20.61 347.06-17.99Q345.11-19.36 343.11-19.91 341.11-20.46 338.76-20.46L338.76-20.46Q337.71-20.46 336.43-20.28 335.15-20.09 334.05-19.64 332.95-19.19 332.21-18.47 331.46-17.75 331.46-16.65L331.46-16.65Q331.46-15.7 332.09-15.12 332.71-14.55 333.76-14.17 334.81-13.79 336.16-13.57 337.52-13.35 339.01-13.16L339.01-13.16Q340.86-12.89 342.76-12.52 344.65-12.16 346.2-11.45 347.75-10.74 348.7-9.52 349.65-8.3 349.65-6.3ZM377.8-10.21L358.15-10.21Q358.51-6.59 360.78-4.44 363.05-2.29 366.69-2.29L366.69-2.29Q369.25-2.29 371.26-3.34 373.26-4.39 374.26-5.96L374.26-5.96 376.6-4.35Q374.89-1.95 372.53-0.7 370.16 0.56 366.69 0.56L366.69 0.56Q364.05 0.56 361.86-0.32 359.66-1.2 358.06-2.77 356.46-4.35 355.58-6.52 354.7-8.69 354.7-11.35L354.7-11.35Q354.7-13.94 355.5-16.13 356.29-18.31 357.79-19.91 359.29-21.51 361.44-22.4 363.59-23.29 366.25-23.29L366.25-23.29Q369.16-23.29 371.33-22.31 373.5-21.34 374.96-19.62 376.41-17.9 377.1-15.5 377.8-13.11 377.8-10.21L377.8-10.21ZM358.2-13.06L374.26-13.06Q373.7-16.8 371.55-18.63 369.4-20.46 366.25-20.46L366.25-20.46Q364.64-20.46 363.27-19.93 361.91-19.41 360.86-18.43 359.81-17.46 359.1-16.08 358.39-14.7 358.2-13.06L358.2-13.06ZM405.09-10.21L385.44-10.21Q385.8-6.59 388.08-4.44 390.35-2.29 393.98-2.29L393.98-2.29Q396.55-2.29 398.55-3.34 400.55-4.39 401.55-5.96L401.55-5.96 403.9-4.35Q402.19-1.95 399.82-0.7 397.45 0.56 393.98 0.56L393.98 0.56Q391.35 0.56 389.15-0.32 386.95-1.2 385.35-2.77 383.75-4.35 382.88-6.52 382-8.69 382-11.35L382-11.35Q382-13.94 382.79-16.13 383.58-18.31 385.08-19.91 386.59-21.51 388.73-22.4 390.88-23.29 393.54-23.29L393.54-23.29Q396.45-23.29 398.62-22.31 400.8-21.34 402.25-19.62 403.7-17.9 404.4-15.5 405.09-13.11 405.09-10.21L405.09-10.21ZM385.49-13.06L401.55-13.06Q400.99-16.8 398.84-18.63 396.69-20.46 393.54-20.46L393.54-20.46Q391.93-20.46 390.57-19.93 389.2-19.41 388.15-18.43 387.1-17.46 386.39-16.08 385.68-14.7 385.49-13.06L385.49-13.06ZM420.28-12.3L432.09 0 427.33 0 418.03-10.21 413.93-6.45 413.93 0 410.58 0 410.58-31.86 413.93-31.86 413.93-10.5 426.89-22.75 431.68-22.75 420.28-12.3ZM459.68-10.21L440.02-10.21Q440.39-6.59 442.66-4.44 444.93-2.29 448.57-2.29L448.57-2.29Q451.13-2.29 453.13-3.34 455.14-4.39 456.14-5.96L456.14-5.96 458.48-4.35Q456.77-1.95 454.4-0.7 452.04 0.56 448.57 0.56L448.57 0.56Q445.93 0.56 443.73-0.32 441.54-1.2 439.94-2.77 438.34-4.35 437.46-6.52 436.58-8.69 436.58-11.35L436.58-11.35Q436.58-13.94 437.37-16.13 438.17-18.31 439.67-19.91 441.17-21.51 443.32-22.4 445.47-23.29 448.13-23.29L448.13-23.29Q451.03-23.29 453.21-22.31 455.38-21.34 456.83-19.62 458.29-17.9 458.98-15.5 459.68-13.11 459.68-10.21L459.68-10.21ZM440.07-13.06L456.14-13.06Q455.58-16.8 453.43-18.63 451.28-20.46 448.13-20.46L448.13-20.46Q446.52-20.46 445.15-19.93 443.78-19.41 442.73-18.43 441.68-17.46 440.98-16.08 440.27-14.7 440.07-13.06L440.07-13.06ZM486.58-22.29L485.48-19.56Q483.67-20.46 481.18-20.46L481.18-20.46Q479.13-20.46 477.52-19.58 475.91-18.7 474.79-17.27 473.66-15.84 473.07-14 472.47-12.16 472.47-10.21L472.47-10.21 472.47-2.86 477.62-2.86 477.62 0 463.97 0 463.97-2.86 469.12-2.86 469.12-19.9 463.97-19.9 463.97-22.75 472.47-22.75 472.47-17.04Q474.76-23.29 481.18-23.29L481.18-23.29Q482.92-23.29 484.2-23.07 485.48-22.85 486.58-22.29L486.58-22.29ZM513.41-6.3L513.41-6.3Q513.41-4.3 512.41-2.98 511.41-1.66 509.83-0.88 508.26-0.1 506.31 0.23 504.37 0.56 502.52 0.56L502.52 0.56Q499.42 0.56 496.34-0.34 493.27-1.25 491.02-2.71L491.02-2.71 492.51-5.59Q495.02-4 497.46-3.15 499.91-2.29 502.52-2.29L502.52-2.29Q510.06-2.29 510.06-6.2L510.06-6.2Q510.06-7.15 509.44-7.75 508.82-8.35 507.77-8.73 506.72-9.11 505.36-9.33 504.01-9.55 502.52-9.74L502.52-9.74Q500.61-10.01 498.73-10.38 496.85-10.74 495.3-11.47 493.75-12.21 492.81-13.43 491.87-14.65 491.87-16.65L491.87-16.65Q491.87-18.36 492.74-19.6 493.61-20.85 495.06-21.68 496.51-22.51 498.47-22.9 500.42-23.29 502.52-23.29L502.52-23.29Q505.52-23.29 507.89-22.6 510.26-21.9 512.16-20.61L512.16-20.61 510.82-17.99Q508.87-19.36 506.86-19.91 504.86-20.46 502.52-20.46L502.52-20.46Q501.47-20.46 500.19-20.28 498.91-20.09 497.81-19.64 496.71-19.19 495.96-18.47 495.22-17.75 495.22-16.65L495.22-16.65Q495.22-15.7 495.84-15.12 496.46-14.55 497.51-14.17 498.56-13.79 499.92-13.57 501.27-13.35 502.76-13.16L502.76-13.16Q504.62-12.89 506.51-12.52 508.4-12.16 509.95-11.45 511.5-10.74 512.46-9.52 513.41-8.3 513.41-6.3Z" opacity="1" transform="matrix(1,0,0,1,0,0)" fill="#ffffff" class="slogan-text-1" data-fill-palette-color="secondary" id="text-1"></path></svg></g></svg></g></svg></g></svg></g><g><svg viewBox="0 0 226.3789286987415 226.3789286987415" height="226.3789286987415" width="226.3789286987415"><g><svg></svg></g><g id="icon-0"><svg viewBox="0 0 226.3789286987415 226.3789286987415" height="226.3789286987415" width="226.3789286987415"><g><path d="M0 113.189c0-62.513 50.677-113.189 113.189-113.189 62.513 0 113.189 50.677 113.19 113.189 0 62.513-50.677 113.189-113.19 113.19-62.513 0-113.189-50.677-113.189-113.19zM113.189 219.479c58.702 0 106.289-47.587 106.29-106.29 0-58.702-47.587-106.289-106.29-106.289-58.702 0-106.289 47.587-106.289 106.289 0 58.702 47.587 106.289 106.289 106.29z" data-fill-palette-color="accent" fill="#ffffff" stroke="transparent"></path></g><g transform="matrix(1,0,0,1,48.56114049469906,51.00227706931784)"><svg viewBox="0 0 129.25664770934338 124.37437456010582" height="124.37437456010582" width="129.25664770934338"><g><svg xmlns="http://www.w3.org/2000/svg" data-name="Layer 1" viewBox="5.339993939288168 7.08 89.22001212142368 85.85000000000001" x="0" y="0" height="124.37437456010582" width="129.25664770934338" class="icon-dxe-0" data-fill-palette-color="accent" id="dxe-0"><path d="M50 7.08A8.6 8.6 0 0 0 47.52 7.45L39.73 9.78 30.78 12.47V35L20.84 36.88V15.46L12.14 18.08 8.48 19.18A4.4 4.4 0 0 0 5.34 23.4V76.6A4.4 4.4 0 0 0 8.47 80.82L47.47 92.56A8.6 8.6 0 0 0 49.95 92.93 8.6 8.6 0 0 0 52.43 92.56L91.43 80.82A4.4 4.4 0 0 0 94.56 76.6V23.4A4.4 4.4 0 0 0 91.43 19.18L52.43 7.44A8.6 8.6 0 0 0 50 7.08M54.4 17.22L85.85 26.68V73.32L54.4 82.78ZM79.45 46.16A10 10 0 0 1 79.53 47.41 10 10 0 0 1 79.45 48.65 9 9 0 0 1 79.22 49.82 8 8 0 0 1 78.84 50.91 6.7 6.7 0 0 1 78.32 51.91L72.2 61.41 72.09 61.56 71.96 61.67 71.82 61.75H71.38L71.25 61.67 71.14 61.55 63.73 52.09A7.6 7.6 0 0 1 63 50.89 8.6 8.6 0 0 1 62.44 49.56 9.4 9.4 0 0 1 62.09 48.1 10 10 0 0 1 62 46.56 10 10 0 0 1 62.07 45 9 9 0 0 1 62.41 43.58 8 8 0 0 1 63 42.34 6.7 6.7 0 0 1 63.75 41.24 5.6 5.6 0 0 1 64.64 40.39 4.6 4.6 0 0 1 65.64 39.82 4.06 4.06 0 0 1 67.76 39.53 4.3 4.3 0 0 1 68.81 39.81 5 5 0 0 1 69.81 40.34 6 6 0 0 1 70.69 41.1 7 7 0 0 1 71.46 42.1L71.74 42.52 72.01 42.17A5 5 0 0 1 72.75 41.38 3.8 3.8 0 0 1 73.57 40.85 3.2 3.2 0 0 1 74.44 40.58 3 3 0 0 1 75.34 40.58 3.3 3.3 0 0 1 76.22 40.82 4 4 0 0 1 77.03 41.29 5 5 0 0 1 77.76 41.98 6.3 6.3 0 0 1 78.4 42.86 7.5 7.5 0 0 1 78.92 43.86 8.5 8.5 0 0 1 79.22 45 9 9 0 0 1 79.45 46.16" fill="#ffffff" data-fill-palette-color="accent"></path></svg></g></svg></g></svg></g></svg></g></svg></g><defs></defs></svg><rect width="395.52" height="136.06989001037246" fill="none" stroke="none" visibility="hidden"></rect></g></svg></g></svg>