<svg width="460" height="516" viewBox="0 0 460 516" fill="none" xmlns="http://www.w3.org/2000/svg">
<rect width="460" height="516" rx="20" fill="#F0F0F0"/>
<path d="M0 20C0 8.95431 8.95431 0 20 0H440C451.046 0 460 8.95431 460 20V55H0V20Z" fill="#DEE1E5"/>
<rect x="29.5" y="89.5" width="414" height="50" rx="25" fill="#F0F0F0" stroke="#ABACAC"/>
<path fill-rule="evenodd" clip-rule="evenodd" d="M63 105C64.0914 105 65.1174 105.292 66.0008 105.804C66.4789 106.08 66.6421 106.692 66.3655 107.17C66.0889 107.648 65.4772 107.811 64.9992 107.535C64.4118 107.195 63.7302 107 63 107C60.7909 107 59 108.791 59 111H70C71.1046 111 72 111.895 72 113V123C72 124.105 71.1046 125 70 125H56C54.8954 125 54 124.105 54 123V113C54 111.895 54.8954 111 56 111H57C57 107.686 59.6863 105 63 105ZM63 115C61.8954 115 61 115.895 61 117C61 117.74 61.4022 118.387 62 118.732V120C62 120.552 62.4477 121 63 121C63.5523 121 64 120.552 64 120V118.732C64.5978 118.387 65 117.74 65 117C65 115.895 64.1046 115 63 115ZM70.9182 108.021L71.8842 108.28C72.4176 108.423 72.7342 108.971 72.5913 109.505C72.4483 110.038 71.9 110.355 71.3665 110.212L70.4006 109.953C69.8671 109.81 69.5506 109.262 69.6935 108.728C69.8364 108.195 70.3848 107.878 70.9182 108.021ZM69.6334 105.089C70.1669 105.232 70.4835 105.78 70.3405 106.314L70.2111 106.796C70.0682 107.33 69.5199 107.647 68.9864 107.504C68.4529 107.361 68.1363 106.812 68.2793 106.279L68.4087 105.796C68.5516 105.262 69.1 104.946 69.6334 105.089Z" fill="#788695"/>
<path d="M87.0977 123V105H89.5938V112.125H89.7578C90.0469 111.562 90.5156 111.09 91.1641 110.707C91.8125 110.324 92.5781 110.133 93.4609 110.133C94.8594 110.133 95.9805 110.59 96.8242 111.504C97.668 112.41 98.0898 113.555 98.0898 114.938V123H95.5703V115.418C95.5703 114.559 95.293 113.855 94.7383 113.309C94.1914 112.762 93.5156 112.488 92.7109 112.488C91.8516 112.488 91.1211 112.781 90.5195 113.367C89.918 113.945 89.6172 114.676 89.6172 115.559V123H87.0977ZM100.691 112.512V110.473H102.344C102.562 110.473 102.742 110.398 102.883 110.25C103.023 110.102 103.094 109.902 103.094 109.652V106.898H105.461V110.449H109.117V112.512H105.461V118.945C105.461 120.227 106.07 120.867 107.289 120.867H108.988V123H106.902C105.652 123 104.68 122.66 103.984 121.98C103.289 121.293 102.941 120.305 102.941 119.016V112.512H100.691ZM111.074 112.512V110.473H112.727C112.945 110.473 113.125 110.398 113.266 110.25C113.406 110.102 113.477 109.902 113.477 109.652V106.898H115.844V110.449H119.5V112.512H115.844V118.945C115.844 120.227 116.453 120.867 117.672 120.867H119.371V123H117.285C116.035 123 115.062 122.66 114.367 121.98C113.672 121.293 113.324 120.305 113.324 119.016V112.512H111.074ZM122.488 128.52V110.449H124.938V112.242H125.102C125.203 112.094 125.305 111.953 125.406 111.82C125.516 111.688 125.695 111.512 125.945 111.293C126.195 111.066 126.457 110.875 126.73 110.719C127.012 110.562 127.363 110.426 127.785 110.309C128.215 110.191 128.664 110.133 129.133 110.133C130.945 110.133 132.414 110.738 133.539 111.949C134.664 113.16 135.227 114.738 135.227 116.684C135.227 118.629 134.672 120.223 133.562 121.465C132.453 122.699 131.027 123.316 129.285 123.316C128.715 123.316 128.18 123.238 127.68 123.082C127.188 122.926 126.773 122.727 126.438 122.484C126.109 122.242 125.844 122.016 125.641 121.805C125.438 121.586 125.273 121.375 125.148 121.172H125.008V128.52H122.488ZM124.938 116.707C124.938 118.027 125.301 119.078 126.027 119.859C126.762 120.641 127.695 121.031 128.828 121.031C129.961 121.031 130.883 120.629 131.594 119.824C132.305 119.012 132.66 117.973 132.66 116.707C132.66 115.402 132.305 114.363 131.594 113.59C130.891 112.809 129.953 112.418 128.781 112.418C127.609 112.418 126.676 112.828 125.98 113.648C125.285 114.461 124.938 115.48 124.938 116.707ZM137.559 119.285H139.938C140.102 120.59 141.016 121.242 142.68 121.242C143.492 121.242 144.121 121.078 144.566 120.75C145.02 120.414 145.246 119.965 145.246 119.402C145.246 118.988 145.109 118.656 144.836 118.406C144.57 118.148 144.219 117.961 143.781 117.844C143.352 117.719 142.875 117.613 142.352 117.527C141.828 117.441 141.305 117.328 140.781 117.188C140.266 117.047 139.789 116.859 139.352 116.625C138.922 116.391 138.57 116.039 138.297 115.57C138.031 115.094 137.898 114.508 137.898 113.812C137.898 112.742 138.336 111.863 139.211 111.176C140.086 110.48 141.234 110.133 142.656 110.133C143.945 110.133 145.023 110.469 145.891 111.141C146.758 111.812 147.238 112.734 147.332 113.906H145.023C144.953 113.359 144.707 112.93 144.285 112.617C143.863 112.305 143.285 112.148 142.551 112.148C141.855 112.148 141.297 112.301 140.875 112.605C140.461 112.902 140.254 113.289 140.254 113.766C140.254 114.094 140.359 114.367 140.57 114.586C140.789 114.805 141.07 114.961 141.414 115.055C141.766 115.148 142.164 115.242 142.609 115.336C143.055 115.422 143.508 115.5 143.969 115.57C144.438 115.641 144.895 115.762 145.34 115.934C145.785 116.105 146.18 116.316 146.523 116.566C146.875 116.809 147.156 117.164 147.367 117.633C147.586 118.102 147.695 118.652 147.695 119.285C147.695 120.488 147.234 121.461 146.312 122.203C145.398 122.945 144.164 123.316 142.609 123.316C141.055 123.316 139.844 122.957 138.977 122.238C138.117 121.512 137.645 120.527 137.559 119.285ZM151.199 122.871C150.879 122.566 150.719 122.195 150.719 121.758C150.719 121.32 150.879 120.945 151.199 120.633C151.52 120.32 151.898 120.164 152.336 120.164C152.789 120.164 153.164 120.32 153.461 120.633C153.766 120.938 153.918 121.312 153.918 121.758C153.918 122.203 153.766 122.574 153.461 122.871C153.164 123.168 152.789 123.316 152.336 123.316C151.898 123.316 151.52 123.168 151.199 122.871ZM151.199 113.953C150.879 113.641 150.719 113.266 150.719 112.828C150.719 112.391 150.879 112.023 151.199 111.727C151.52 111.422 151.898 111.27 152.336 111.27C152.789 111.27 153.164 111.418 153.461 111.715C153.766 112.012 153.918 112.383 153.918 112.828C153.918 113.273 153.766 113.648 153.461 113.953C153.164 114.258 152.789 114.41 152.336 114.41C151.898 114.41 151.52 114.258 151.199 113.953ZM156.754 125.59L164.055 105H166.434L159.133 125.59H156.754ZM168.73 125.59L176.031 105H178.41L171.109 125.59H168.73ZM182.324 121.5C181.199 120.289 180.637 118.711 180.637 116.766C180.637 114.82 181.195 113.23 182.312 111.996C183.43 110.754 184.863 110.133 186.613 110.133C187.176 110.133 187.703 110.211 188.195 110.367C188.688 110.523 189.098 110.727 189.426 110.977C189.762 111.227 190.027 111.457 190.223 111.668C190.418 111.871 190.582 112.074 190.715 112.277H190.891V110.449H193.41V123H190.938V121.219H190.785C189.793 122.617 188.441 123.316 186.73 123.316C184.926 123.316 183.457 122.711 182.324 121.5ZM183.203 116.73C183.203 118.027 183.559 119.07 184.27 119.859C184.988 120.641 185.93 121.031 187.094 121.031C188.266 121.031 189.203 120.621 189.906 119.801C190.609 118.98 190.961 117.957 190.961 116.73C190.961 115.41 190.594 114.367 189.859 113.602C189.133 112.828 188.203 112.441 187.07 112.441C185.93 112.441 185 112.844 184.281 113.648C183.562 114.445 183.203 115.473 183.203 116.73ZM197.043 123V110.449H199.492V112.102H199.656C199.953 111.523 200.402 111.051 201.004 110.684C201.605 110.316 202.332 110.133 203.184 110.133C204.066 110.133 204.836 110.32 205.492 110.695C206.148 111.07 206.66 111.586 207.027 112.242H207.191C207.988 110.836 209.277 110.133 211.059 110.133C212.434 110.133 213.539 110.566 214.375 111.434C215.219 112.293 215.641 113.406 215.641 114.773V123H213.121V115.629C213.121 114.621 212.891 113.848 212.43 113.309C211.969 112.762 211.32 112.488 210.484 112.488C209.664 112.488 208.98 112.777 208.434 113.355C207.895 113.926 207.625 114.699 207.625 115.676V123H205.105V115.348C205.105 114.48 204.855 113.789 204.355 113.273C203.855 112.75 203.203 112.488 202.398 112.488C201.594 112.488 200.918 112.781 200.371 113.367C199.832 113.945 199.562 114.691 199.562 115.605V123H197.043ZM220.059 121.5C218.934 120.289 218.371 118.711 218.371 116.766C218.371 114.82 218.93 113.23 220.047 111.996C221.164 110.754 222.598 110.133 224.348 110.133C224.91 110.133 225.438 110.211 225.93 110.367C226.422 110.523 226.832 110.727 227.16 110.977C227.496 111.227 227.762 111.457 227.957 111.668C228.152 111.871 228.316 112.074 228.449 112.277H228.625V110.449H231.145V123H228.672V121.219H228.52C227.527 122.617 226.176 123.316 224.465 123.316C222.66 123.316 221.191 122.711 220.059 121.5ZM220.938 116.73C220.938 118.027 221.293 119.07 222.004 119.859C222.723 120.641 223.664 121.031 224.828 121.031C226 121.031 226.938 120.621 227.641 119.801C228.344 118.98 228.695 117.957 228.695 116.73C228.695 115.41 228.328 114.367 227.594 113.602C226.867 112.828 225.938 112.441 224.805 112.441C223.664 112.441 222.734 112.844 222.016 113.648C221.297 114.445 220.938 115.473 220.938 116.73ZM234.133 123V120.82L240.66 112.723V112.559H234.344V110.449H243.824V112.559L237.297 120.691V120.867H243.941V123H234.133ZM246.074 116.73C246.074 115.488 246.355 114.363 246.918 113.355C247.488 112.348 248.281 111.559 249.297 110.988C250.312 110.418 251.453 110.133 252.719 110.133C253.984 110.133 255.121 110.422 256.129 111C257.145 111.578 257.93 112.371 258.484 113.379C259.047 114.379 259.328 115.496 259.328 116.73C259.328 117.965 259.043 119.086 258.473 120.094C257.91 121.094 257.121 121.883 256.105 122.461C255.09 123.031 253.953 123.316 252.695 123.316C250.773 123.316 249.188 122.695 247.938 121.453C246.695 120.203 246.074 118.629 246.074 116.73ZM248.641 116.73C248.641 117.98 249.02 119.012 249.777 119.824C250.543 120.629 251.516 121.031 252.695 121.031C253.883 121.031 254.855 120.625 255.613 119.812C256.379 119 256.762 117.973 256.762 116.73C256.762 115.48 256.379 114.453 255.613 113.648C254.855 112.844 253.883 112.441 252.695 112.441C251.508 112.441 250.535 112.848 249.777 113.66C249.02 114.465 248.641 115.488 248.641 116.73ZM262.363 123V110.449H264.812V112.125H264.977C265.25 111.562 265.711 111.09 266.359 110.707C267.008 110.324 267.773 110.133 268.656 110.133C270.055 110.133 271.172 110.586 272.008 111.492C272.844 112.398 273.262 113.547 273.262 114.938V123H270.742V115.418C270.742 114.551 270.473 113.848 269.934 113.309C269.402 112.762 268.734 112.488 267.93 112.488C267.055 112.488 266.328 112.793 265.75 113.402C265.172 114.004 264.883 114.762 264.883 115.676V123H262.363ZM277.082 122.871C276.762 122.566 276.602 122.195 276.602 121.758C276.602 121.32 276.762 120.945 277.082 120.633C277.402 120.32 277.781 120.164 278.219 120.164C278.672 120.164 279.047 120.32 279.344 120.633C279.648 120.938 279.801 121.312 279.801 121.758C279.801 122.203 279.648 122.574 279.344 122.871C279.047 123.168 278.672 123.316 278.219 123.316C277.781 123.316 277.402 123.168 277.082 122.871ZM282.566 116.73C282.566 115.504 282.84 114.391 283.387 113.391C283.934 112.383 284.703 111.59 285.695 111.012C286.695 110.426 287.82 110.133 289.07 110.133C290.578 110.133 291.895 110.562 293.02 111.422C294.152 112.281 294.859 113.422 295.141 114.844H292.551C292.332 114.125 291.906 113.547 291.273 113.109C290.648 112.664 289.922 112.441 289.094 112.441C287.922 112.441 286.973 112.848 286.246 113.66C285.52 114.473 285.156 115.496 285.156 116.73C285.156 117.973 285.527 119 286.27 119.812C287.012 120.625 287.969 121.031 289.141 121.031C289.945 121.031 290.664 120.812 291.297 120.375C291.93 119.938 292.355 119.363 292.574 118.652H295.141C294.867 120.066 294.168 121.199 293.043 122.051C291.918 122.895 290.602 123.316 289.094 123.316C288.141 123.316 287.254 123.148 286.434 122.812C285.621 122.469 284.934 122.004 284.371 121.418C283.809 120.824 283.367 120.125 283.047 119.32C282.727 118.508 282.566 117.645 282.566 116.73ZM297.332 116.73C297.332 115.488 297.613 114.363 298.176 113.355C298.746 112.348 299.539 111.559 300.555 110.988C301.57 110.418 302.711 110.133 303.977 110.133C305.242 110.133 306.379 110.422 307.387 111C308.402 111.578 309.188 112.371 309.742 113.379C310.305 114.379 310.586 115.496 310.586 116.73C310.586 117.965 310.301 119.086 309.73 120.094C309.168 121.094 308.379 121.883 307.363 122.461C306.348 123.031 305.211 123.316 303.953 123.316C302.031 123.316 300.445 122.695 299.195 121.453C297.953 120.203 297.332 118.629 297.332 116.73ZM299.898 116.73C299.898 117.98 300.277 119.012 301.035 119.824C301.801 120.629 302.773 121.031 303.953 121.031C305.141 121.031 306.113 120.625 306.871 119.812C307.637 119 308.02 117.973 308.02 116.73C308.02 115.48 307.637 114.453 306.871 113.648C306.113 112.844 305.141 112.441 303.953 112.441C302.766 112.441 301.793 112.848 301.035 113.66C300.277 114.465 299.898 115.488 299.898 116.73ZM313.621 123V110.449H316.07V112.102H316.234C316.531 111.523 316.98 111.051 317.582 110.684C318.184 110.316 318.91 110.133 319.762 110.133C320.645 110.133 321.414 110.32 322.07 110.695C322.727 111.07 323.238 111.586 323.605 112.242H323.77C324.566 110.836 325.855 110.133 327.637 110.133C329.012 110.133 330.117 110.566 330.953 111.434C331.797 112.293 332.219 113.406 332.219 114.773V123H329.699V115.629C329.699 114.621 329.469 113.848 329.008 113.309C328.547 112.762 327.898 112.488 327.062 112.488C326.242 112.488 325.559 112.777 325.012 113.355C324.473 113.926 324.203 114.699 324.203 115.676V123H321.684V115.348C321.684 114.48 321.434 113.789 320.934 113.273C320.434 112.75 319.781 112.488 318.977 112.488C318.172 112.488 317.496 112.781 316.949 113.367C316.41 113.945 316.141 114.691 316.141 115.605V123H313.621Z" fill="#474F57"/>
<path d="M350.055 129.169L355.025 154.289C355.146 154.92 355.466 155.495 355.938 155.93C356.409 156.365 357.008 156.638 357.646 156.708C358.349 156.803 359.064 156.671 359.686 156.329C360.307 155.987 360.803 155.455 361.099 154.81L364.52 147.206L372.852 147.459C373.561 147.48 374.258 147.273 374.84 146.868C375.423 146.463 375.859 145.881 376.086 145.209C376.305 144.616 376.325 143.968 376.145 143.361C375.964 142.755 375.592 142.224 375.085 141.847L354.788 126.233C354.438 125.969 354.036 125.783 353.608 125.685C353.122 125.559 352.612 125.559 352.127 125.687C351.641 125.814 351.196 126.064 350.835 126.413C350.474 126.762 350.209 127.197 350.065 127.678C349.921 128.159 349.903 128.669 350.012 129.159L350.055 129.169Z" fill="black"/>
</svg>
