<svg width="460" height="516" viewBox="0 0 460 516" fill="none" xmlns="http://www.w3.org/2000/svg">
<rect width="460" height="516" rx="20" fill="#F0F0F0"/>
<path d="M0 20C0 8.95431 8.95431 0 20 0H440C451.046 0 460 8.95431 460 20V55H0V20Z" fill="#DEE1E5"/>
<path d="M0.5 89.5H352.5C366.307 89.5 377.5 100.693 377.5 114.5C377.5 128.307 366.307 139.5 352.5 139.5H0.5V89.5Z" fill="#F0F0F0" stroke="#ABACAC"/>
<circle cx="415" cy="115" r="23" fill="#DEE1E5"/>
<g filter="url(#filter0_d_2447_212)">
<rect x="143" y="156" width="273" height="159" rx="15" fill="#F0F0F0"/>
</g>
<rect width="108" height="38" transform="translate(155 198)" fill="#0564FF"/>
<path d="M165.551 216.799C165.551 216.189 165.66 215.617 165.879 215.082C166.098 214.543 166.398 214.08 166.781 213.693C167.164 213.307 167.625 213.002 168.164 212.779C168.707 212.557 169.289 212.445 169.91 212.445C170.914 212.445 171.773 212.719 172.488 213.266C173.207 213.812 173.691 214.535 173.941 215.434H172.547C172.363 214.883 172.033 214.451 171.557 214.139C171.08 213.826 170.531 213.67 169.91 213.67C169.348 213.67 168.836 213.807 168.375 214.08C167.914 214.35 167.553 214.725 167.291 215.205C167.029 215.682 166.898 216.213 166.898 216.799C166.898 217.701 167.186 218.449 167.76 219.043C168.334 219.637 169.051 219.934 169.91 219.934C170.531 219.934 171.078 219.779 171.551 219.471C172.023 219.162 172.355 218.732 172.547 218.182H173.965C173.727 219.08 173.242 219.801 172.512 220.344C171.785 220.887 170.918 221.158 169.91 221.158C169.289 221.158 168.707 221.049 168.164 220.83C167.621 220.607 167.158 220.305 166.775 219.922C166.396 219.535 166.098 219.072 165.879 218.533C165.66 217.994 165.551 217.416 165.551 216.799ZM175.512 221V214.725H176.725V215.814H176.807C176.916 215.525 177.121 215.27 177.422 215.047C177.723 214.824 178.078 214.713 178.488 214.713H179.039V215.938H178.453C177.93 215.938 177.518 216.117 177.217 216.477C176.92 216.836 176.771 217.312 176.771 217.906V221H175.512ZM179.812 217.883C179.812 217.23 179.949 216.652 180.223 216.148C180.496 215.641 180.869 215.25 181.342 214.977C181.818 214.703 182.354 214.566 182.947 214.566C183.424 214.566 183.857 214.65 184.248 214.818C184.639 214.986 184.961 215.217 185.215 215.51C185.473 215.803 185.67 216.145 185.807 216.535C185.947 216.926 186.018 217.346 186.018 217.795V218.264H181.072C181.096 218.814 181.281 219.258 181.629 219.594C181.977 219.93 182.436 220.098 183.006 220.098C183.404 220.098 183.76 220.008 184.072 219.828C184.389 219.648 184.609 219.406 184.734 219.102H185.959C185.795 219.719 185.445 220.217 184.91 220.596C184.379 220.971 183.732 221.158 182.971 221.158C182.037 221.158 181.277 220.852 180.691 220.238C180.105 219.621 179.812 218.836 179.812 217.883ZM181.096 217.291H184.77C184.73 216.775 184.541 216.369 184.201 216.072C183.861 215.771 183.443 215.621 182.947 215.621C182.463 215.621 182.045 215.777 181.693 216.09C181.342 216.402 181.143 216.803 181.096 217.291ZM187.945 220.25C187.383 219.645 187.102 218.855 187.102 217.883C187.102 216.91 187.381 216.115 187.939 215.498C188.498 214.877 189.215 214.566 190.09 214.566C190.371 214.566 190.635 214.605 190.881 214.684C191.127 214.762 191.332 214.863 191.496 214.988C191.664 215.113 191.797 215.229 191.895 215.334C191.992 215.436 192.074 215.537 192.141 215.639H192.229V214.725H193.488V221H192.252V220.109H192.176C191.68 220.809 191.004 221.158 190.148 221.158C189.246 221.158 188.512 220.855 187.945 220.25ZM188.385 217.865C188.385 218.514 188.562 219.035 188.918 219.43C189.277 219.82 189.748 220.016 190.33 220.016C190.916 220.016 191.385 219.811 191.736 219.4C192.088 218.99 192.264 218.479 192.264 217.865C192.264 217.205 192.08 216.684 191.713 216.301C191.35 215.914 190.885 215.721 190.318 215.721C189.748 215.721 189.283 215.922 188.924 216.324C188.564 216.723 188.385 217.236 188.385 217.865ZM194.789 215.756V214.736H195.615C195.725 214.736 195.814 214.699 195.885 214.625C195.955 214.551 195.99 214.451 195.99 214.326V212.949H197.174V214.725H199.002V215.756H197.174V218.973C197.174 219.613 197.479 219.934 198.088 219.934H198.938V221H197.895C197.27 221 196.783 220.83 196.436 220.49C196.088 220.146 195.914 219.652 195.914 219.008V215.756H194.789ZM200.051 217.883C200.051 217.23 200.188 216.652 200.461 216.148C200.734 215.641 201.107 215.25 201.58 214.977C202.057 214.703 202.592 214.566 203.186 214.566C203.662 214.566 204.096 214.65 204.486 214.818C204.877 214.986 205.199 215.217 205.453 215.51C205.711 215.803 205.908 216.145 206.045 216.535C206.186 216.926 206.256 217.346 206.256 217.795V218.264H201.311C201.334 218.814 201.52 219.258 201.867 219.594C202.215 219.93 202.674 220.098 203.244 220.098C203.643 220.098 203.998 220.008 204.311 219.828C204.627 219.648 204.848 219.406 204.973 219.102H206.197C206.033 219.719 205.684 220.217 205.148 220.596C204.617 220.971 203.971 221.158 203.209 221.158C202.275 221.158 201.516 220.852 200.93 220.238C200.344 219.621 200.051 218.836 200.051 217.883ZM201.334 217.291H205.008C204.969 216.775 204.779 216.369 204.439 216.072C204.1 215.771 203.682 215.621 203.186 215.621C202.701 215.621 202.283 215.777 201.932 216.09C201.58 216.402 201.381 216.803 201.334 217.291ZM210.621 216.799C210.621 216.189 210.73 215.617 210.949 215.082C211.168 214.543 211.469 214.08 211.852 213.693C212.234 213.307 212.695 213.002 213.234 212.779C213.777 212.557 214.359 212.445 214.98 212.445C215.984 212.445 216.844 212.719 217.559 213.266C218.277 213.812 218.762 214.535 219.012 215.434H217.617C217.434 214.883 217.104 214.451 216.627 214.139C216.15 213.826 215.602 213.67 214.98 213.67C214.418 213.67 213.906 213.807 213.445 214.08C212.984 214.35 212.623 214.725 212.361 215.205C212.1 215.682 211.969 216.213 211.969 216.799C211.969 217.701 212.256 218.449 212.83 219.043C213.404 219.637 214.121 219.934 214.98 219.934C215.602 219.934 216.148 219.779 216.621 219.471C217.094 219.162 217.426 218.732 217.617 218.182H219.035C218.797 219.08 218.312 219.801 217.582 220.344C216.855 220.887 215.988 221.158 214.98 221.158C214.359 221.158 213.777 221.049 213.234 220.83C212.691 220.607 212.229 220.305 211.846 219.922C211.467 219.535 211.168 219.072 210.949 218.533C210.73 217.994 210.621 217.416 210.621 216.799ZM220.98 220.25C220.418 219.645 220.137 218.855 220.137 217.883C220.137 216.91 220.416 216.115 220.975 215.498C221.533 214.877 222.25 214.566 223.125 214.566C223.406 214.566 223.67 214.605 223.916 214.684C224.162 214.762 224.367 214.863 224.531 214.988C224.699 215.113 224.832 215.229 224.93 215.334C225.027 215.436 225.109 215.537 225.176 215.639H225.264V214.725H226.523V221H225.287V220.109H225.211C224.715 220.809 224.039 221.158 223.184 221.158C222.281 221.158 221.547 220.855 220.98 220.25ZM221.42 217.865C221.42 218.514 221.598 219.035 221.953 219.43C222.312 219.82 222.783 220.016 223.365 220.016C223.951 220.016 224.42 219.811 224.771 219.4C225.123 218.99 225.299 218.479 225.299 217.865C225.299 217.205 225.115 216.684 224.748 216.301C224.385 215.914 223.92 215.721 223.354 215.721C222.783 215.721 222.318 215.922 221.959 216.324C221.6 216.723 221.42 217.236 221.42 217.865ZM228.34 221V214.725H229.553V215.814H229.635C229.744 215.525 229.949 215.27 230.25 215.047C230.551 214.824 230.906 214.713 231.316 214.713H231.867V215.938H231.281C230.758 215.938 230.346 216.117 230.045 216.477C229.748 216.836 229.6 217.312 229.6 217.906V221H228.34ZM232.828 215.756V214.736H233.654C233.764 214.736 233.854 214.699 233.924 214.625C233.994 214.551 234.029 214.451 234.029 214.326V212.949H235.213V214.725H237.041V215.756H235.213V218.973C235.213 219.613 235.518 219.934 236.127 219.934H236.977V221H235.934C235.309 221 234.822 220.83 234.475 220.49C234.127 220.146 233.953 219.652 233.953 219.008V215.756H232.828ZM241.887 221V212.598H243.182V221H241.887ZM245.32 221V212.598H247.986C248.861 212.598 249.621 212.777 250.266 213.137C250.914 213.496 251.404 213.99 251.736 214.619C252.068 215.244 252.234 215.967 252.234 216.787C252.234 218.096 251.859 219.125 251.109 219.875C250.359 220.625 249.318 221 247.986 221H245.32ZM246.615 219.869H247.963C248.854 219.869 249.568 219.604 250.107 219.072C250.646 218.541 250.916 217.779 250.916 216.787C250.916 215.826 250.646 215.078 250.107 214.543C249.572 214.008 248.857 213.74 247.963 213.74H246.615V219.869Z" fill="white"/>
<rect width="108" height="38" transform="translate(293 198)" fill="#0564FF"/>
<path d="M316.969 218.422H318.229C318.236 218.867 318.41 219.236 318.75 219.529C319.09 219.822 319.543 219.969 320.109 219.969C320.613 219.969 321.018 219.861 321.322 219.646C321.627 219.428 321.779 219.131 321.779 218.756C321.779 218.514 321.727 218.307 321.621 218.135C321.52 217.963 321.381 217.828 321.205 217.73C321.029 217.629 320.828 217.543 320.602 217.473C320.375 217.402 320.135 217.338 319.881 217.279C319.631 217.221 319.379 217.158 319.125 217.092C318.875 217.021 318.637 216.93 318.41 216.816C318.184 216.699 317.982 216.559 317.807 216.395C317.631 216.227 317.49 216.006 317.385 215.732C317.283 215.459 317.232 215.143 317.232 214.783C317.232 214.123 317.484 213.568 317.988 213.119C318.496 212.67 319.18 212.445 320.039 212.445C320.406 212.445 320.756 212.496 321.088 212.598C321.424 212.699 321.729 212.85 322.002 213.049C322.279 213.244 322.5 213.508 322.664 213.84C322.832 214.168 322.918 214.543 322.922 214.965H321.609C321.609 214.547 321.471 214.217 321.193 213.975C320.92 213.729 320.531 213.605 320.027 213.605C319.539 213.605 319.164 213.717 318.902 213.939C318.645 214.162 318.516 214.436 318.516 214.76C318.516 214.975 318.568 215.16 318.674 215.316C318.779 215.469 318.92 215.59 319.096 215.68C319.271 215.77 319.475 215.848 319.705 215.914C319.936 215.98 320.178 216.045 320.432 216.107C320.686 216.166 320.939 216.232 321.193 216.307C321.447 216.377 321.689 216.473 321.92 216.594C322.15 216.715 322.354 216.861 322.529 217.033C322.705 217.201 322.846 217.424 322.951 217.701C323.057 217.979 323.109 218.299 323.109 218.662C323.109 219.389 322.836 219.986 322.289 220.455C321.746 220.924 321.004 221.158 320.062 221.158C319.16 221.158 318.418 220.904 317.836 220.396C317.258 219.885 316.969 219.227 316.969 218.422ZM324.621 221V212H325.869V215.562H325.951C326.096 215.281 326.33 215.045 326.654 214.854C326.979 214.662 327.361 214.566 327.803 214.566C328.502 214.566 329.062 214.795 329.484 215.252C329.906 215.705 330.117 216.277 330.117 216.969V221H328.857V217.209C328.857 216.779 328.719 216.428 328.441 216.154C328.168 215.881 327.83 215.744 327.428 215.744C326.998 215.744 326.633 215.891 326.332 216.184C326.031 216.473 325.881 216.838 325.881 217.279V221H324.621ZM331.488 217.865C331.488 217.244 331.629 216.682 331.91 216.178C332.195 215.674 332.592 215.279 333.1 214.994C333.607 214.709 334.178 214.566 334.811 214.566C335.443 214.566 336.012 214.711 336.516 215C337.023 215.289 337.416 215.686 337.693 216.189C337.975 216.689 338.115 217.248 338.115 217.865C338.115 218.482 337.973 219.043 337.688 219.547C337.406 220.047 337.012 220.441 336.504 220.73C335.996 221.016 335.428 221.158 334.799 221.158C333.838 221.158 333.045 220.848 332.42 220.227C331.799 219.602 331.488 218.814 331.488 217.865ZM332.771 217.865C332.771 218.49 332.961 219.006 333.34 219.412C333.723 219.814 334.209 220.016 334.799 220.016C335.393 220.016 335.879 219.812 336.258 219.406C336.641 219 336.832 218.486 336.832 217.865C336.832 217.24 336.641 216.727 336.258 216.324C335.879 215.922 335.393 215.721 334.799 215.721C334.205 215.721 333.719 215.924 333.34 216.33C332.961 216.732 332.771 217.244 332.771 217.865ZM339.633 223.76V214.725H340.857V215.621H340.939C340.99 215.547 341.041 215.477 341.092 215.41C341.146 215.344 341.236 215.256 341.361 215.146C341.486 215.033 341.617 214.938 341.754 214.859C341.895 214.781 342.07 214.713 342.281 214.654C342.496 214.596 342.721 214.566 342.955 214.566C343.861 214.566 344.596 214.869 345.158 215.475C345.721 216.08 346.002 216.869 346.002 217.842C346.002 218.814 345.725 219.611 345.17 220.232C344.615 220.85 343.902 221.158 343.031 221.158C342.746 221.158 342.479 221.119 342.229 221.041C341.982 220.963 341.775 220.863 341.607 220.742C341.443 220.621 341.311 220.508 341.209 220.402C341.107 220.293 341.025 220.188 340.963 220.086H340.893V223.76H339.633ZM340.857 217.854C340.857 218.514 341.039 219.039 341.402 219.43C341.77 219.82 342.236 220.016 342.803 220.016C343.369 220.016 343.83 219.814 344.186 219.412C344.541 219.006 344.719 218.486 344.719 217.854C344.719 217.201 344.541 216.682 344.186 216.295C343.834 215.904 343.365 215.709 342.779 215.709C342.193 215.709 341.727 215.914 341.379 216.324C341.031 216.73 340.857 217.24 340.857 217.854ZM350.367 216.799C350.367 216.189 350.477 215.617 350.695 215.082C350.914 214.543 351.215 214.08 351.598 213.693C351.98 213.307 352.441 213.002 352.98 212.779C353.523 212.557 354.105 212.445 354.727 212.445C355.73 212.445 356.59 212.719 357.305 213.266C358.023 213.812 358.508 214.535 358.758 215.434H357.363C357.18 214.883 356.85 214.451 356.373 214.139C355.896 213.826 355.348 213.67 354.727 213.67C354.164 213.67 353.652 213.807 353.191 214.08C352.73 214.35 352.369 214.725 352.107 215.205C351.846 215.682 351.715 216.213 351.715 216.799C351.715 217.701 352.002 218.449 352.576 219.043C353.15 219.637 353.867 219.934 354.727 219.934C355.348 219.934 355.895 219.779 356.367 219.471C356.84 219.162 357.172 218.732 357.363 218.182H358.781C358.543 219.08 358.059 219.801 357.328 220.344C356.602 220.887 355.734 221.158 354.727 221.158C354.105 221.158 353.523 221.049 352.98 220.83C352.438 220.607 351.975 220.305 351.592 219.922C351.213 219.535 350.914 219.072 350.695 218.533C350.477 217.994 350.367 217.416 350.367 216.799ZM360.727 220.25C360.164 219.645 359.883 218.855 359.883 217.883C359.883 216.91 360.162 216.115 360.721 215.498C361.279 214.877 361.996 214.566 362.871 214.566C363.152 214.566 363.416 214.605 363.662 214.684C363.908 214.762 364.113 214.863 364.277 214.988C364.445 215.113 364.578 215.229 364.676 215.334C364.773 215.436 364.855 215.537 364.922 215.639H365.01V214.725H366.27V221H365.033V220.109H364.957C364.461 220.809 363.785 221.158 362.93 221.158C362.027 221.158 361.293 220.855 360.727 220.25ZM361.166 217.865C361.166 218.514 361.344 219.035 361.699 219.43C362.059 219.82 362.529 220.016 363.111 220.016C363.697 220.016 364.166 219.811 364.518 219.4C364.869 218.99 365.045 218.479 365.045 217.865C365.045 217.205 364.861 216.684 364.494 216.301C364.131 215.914 363.666 215.721 363.1 215.721C362.529 215.721 362.064 215.922 361.705 216.324C361.346 216.723 361.166 217.236 361.166 217.865ZM368.086 221V214.725H369.299V215.814H369.381C369.49 215.525 369.695 215.27 369.996 215.047C370.297 214.824 370.652 214.713 371.062 214.713H371.613V215.938H371.027C370.504 215.938 370.092 216.117 369.791 216.477C369.494 216.836 369.346 217.312 369.346 217.906V221H368.086ZM372.574 215.756V214.736H373.4C373.51 214.736 373.6 214.699 373.67 214.625C373.74 214.551 373.775 214.451 373.775 214.326V212.949H374.959V214.725H376.787V215.756H374.959V218.973C374.959 219.613 375.264 219.934 375.873 219.934H376.723V221H375.68C375.055 221 374.568 220.83 374.221 220.49C373.873 220.146 373.699 219.652 373.699 219.008V215.756H372.574Z" fill="white"/>
<path d="M155.398 174.346H156.945C156.953 174.736 157.107 175.059 157.408 175.312C157.713 175.566 158.123 175.693 158.639 175.693C159.092 175.693 159.449 175.604 159.711 175.424C159.977 175.24 160.109 174.99 160.109 174.674C160.109 174.471 160.059 174.297 159.957 174.152C159.855 174.008 159.719 173.895 159.547 173.812C159.375 173.73 159.178 173.66 158.955 173.602C158.732 173.539 158.496 173.48 158.246 173.426C158 173.367 157.754 173.305 157.508 173.238C157.262 173.168 157.027 173.072 156.805 172.951C156.582 172.83 156.385 172.684 156.213 172.512C156.041 172.34 155.904 172.115 155.803 171.838C155.701 171.557 155.65 171.232 155.65 170.865C155.65 170.174 155.91 169.598 156.43 169.137C156.949 168.676 157.656 168.445 158.551 168.445C158.957 168.445 159.336 168.5 159.688 168.609C160.039 168.715 160.352 168.873 160.625 169.084C160.902 169.291 161.123 169.562 161.287 169.898C161.451 170.23 161.539 170.609 161.551 171.035H159.957C159.949 170.68 159.822 170.396 159.576 170.186C159.334 169.975 158.992 169.869 158.551 169.869C158.125 169.869 157.799 169.961 157.572 170.145C157.346 170.328 157.232 170.561 157.232 170.842C157.232 171.029 157.283 171.189 157.385 171.322C157.49 171.451 157.629 171.553 157.801 171.627C157.977 171.701 158.178 171.768 158.404 171.826C158.631 171.881 158.869 171.938 159.119 171.996C159.369 172.051 159.619 172.113 159.869 172.184C160.119 172.25 160.357 172.346 160.584 172.471C160.811 172.592 161.01 172.738 161.182 172.91C161.357 173.082 161.496 173.309 161.598 173.59C161.703 173.867 161.756 174.188 161.756 174.551C161.756 175.316 161.473 175.943 160.906 176.432C160.344 176.916 159.57 177.158 158.586 177.158C157.629 177.158 156.857 176.9 156.271 176.385C155.689 175.865 155.398 175.186 155.398 174.346ZM163.168 177V168.598H164.762V171.996H168.482V168.598H170.076V177H168.482V173.508H164.762V177H163.168ZM171.547 172.799C171.547 171.986 171.738 171.248 172.121 170.584C172.504 169.916 173.033 169.393 173.709 169.014C174.385 168.635 175.141 168.445 175.977 168.445C176.602 168.445 177.188 168.559 177.734 168.785C178.285 169.008 178.754 169.312 179.141 169.699C179.531 170.086 179.838 170.549 180.061 171.088C180.287 171.623 180.4 172.193 180.4 172.799C180.4 173.611 180.209 174.352 179.826 175.02C179.443 175.684 178.912 176.207 178.232 176.59C177.557 176.969 176.801 177.158 175.965 177.158C175.129 177.158 174.373 176.971 173.697 176.596C173.025 176.217 172.498 175.695 172.115 175.031C171.736 174.363 171.547 173.619 171.547 172.799ZM173.205 172.799C173.205 173.619 173.465 174.297 173.984 174.832C174.508 175.367 175.172 175.635 175.977 175.635C176.777 175.635 177.438 175.367 177.957 174.832C178.477 174.297 178.736 173.619 178.736 172.799C178.736 171.99 178.475 171.316 177.951 170.777C177.432 170.238 176.773 169.969 175.977 169.969C175.172 169.969 174.508 170.238 173.984 170.777C173.465 171.316 173.205 171.99 173.205 172.799ZM181.871 177V168.598H185.053C185.865 168.598 186.535 168.85 187.062 169.354C187.594 169.857 187.859 170.51 187.859 171.311C187.859 171.83 187.734 172.301 187.484 172.723C187.234 173.145 186.895 173.473 186.465 173.707C186.039 173.941 185.568 174.059 185.053 174.059H183.465V177H181.871ZM183.465 172.693H184.883C185.281 172.693 185.604 172.566 185.85 172.312C186.1 172.055 186.225 171.721 186.225 171.311C186.225 170.908 186.102 170.584 185.855 170.338C185.609 170.092 185.285 169.969 184.883 169.969H183.465V172.693ZM187.678 177L190.666 168.598H192.67L195.67 177H193.977L193.391 175.342H189.898L189.318 177H187.678ZM190.361 173.918H192.934L191.697 170.379H191.598L190.361 173.918ZM195.969 177L198.623 172.705L196.104 168.598H197.914L199.607 171.434H199.678L201.383 168.598H203.193L200.662 172.705L203.316 177H201.465L199.666 173.965H199.596L197.809 177H195.969ZM203.709 177L206.697 168.598H208.701L211.701 177H210.008L209.422 175.342H205.93L205.35 177H203.709ZM206.393 173.918H208.965L207.729 170.379H207.629L206.393 173.918Z" fill="#474F57"/>
<path d="M212.707 240.601C212.317 240.107 211.684 240.107 211.293 240.601L205.636 247.76C205.246 248.254 205.246 249.055 205.636 249.549C206.027 250.044 206.66 250.044 207.05 249.549L211 244.551V261.309C211 262.008 211.448 262.574 212 262.574C212.552 262.574 213 262.008 213 261.309V244.551L216.95 249.549C217.34 250.044 217.974 250.044 218.364 249.549C218.755 249.055 218.755 248.254 218.364 247.76L212.707 240.601Z" fill="#586283"/>
<path d="M352.707 240.601C352.317 240.107 351.684 240.107 351.293 240.601L345.636 247.76C345.246 248.254 345.246 249.055 345.636 249.549C346.027 250.043 346.66 250.043 347.05 249.549L351 244.551V261.309C351 262.007 351.448 262.574 352 262.574C352.552 262.574 353 262.007 353 261.309V244.551L356.95 249.549C357.34 250.043 357.974 250.043 358.364 249.549C358.755 249.055 358.755 248.254 358.364 247.76L352.707 240.601Z" fill="#586283"/>
<path d="M175.562 269.752V268.598H181.838V269.752H179.348V277H178.059V269.752H175.562ZM181.697 273.865C181.697 273.244 181.838 272.682 182.119 272.178C182.404 271.674 182.801 271.279 183.309 270.994C183.816 270.709 184.387 270.566 185.02 270.566C185.652 270.566 186.221 270.711 186.725 271C187.232 271.289 187.625 271.686 187.902 272.189C188.184 272.689 188.324 273.248 188.324 273.865C188.324 274.482 188.182 275.043 187.896 275.547C187.615 276.047 187.221 276.441 186.713 276.73C186.205 277.016 185.637 277.158 185.008 277.158C184.047 277.158 183.254 276.848 182.629 276.227C182.008 275.602 181.697 274.814 181.697 273.865ZM182.98 273.865C182.98 274.49 183.17 275.006 183.549 275.412C183.932 275.814 184.418 276.016 185.008 276.016C185.602 276.016 186.088 275.812 186.467 275.406C186.85 275 187.041 274.486 187.041 273.865C187.041 273.24 186.85 272.727 186.467 272.324C186.088 271.922 185.602 271.721 185.008 271.721C184.414 271.721 183.928 271.924 183.549 272.33C183.17 272.732 182.98 273.244 182.98 273.865ZM192.748 275.143H193.938C194.02 275.795 194.477 276.121 195.309 276.121C195.715 276.121 196.029 276.039 196.252 275.875C196.479 275.707 196.592 275.482 196.592 275.201C196.592 274.994 196.523 274.828 196.387 274.703C196.254 274.574 196.078 274.48 195.859 274.422C195.645 274.359 195.406 274.307 195.145 274.264C194.883 274.221 194.621 274.164 194.359 274.094C194.102 274.023 193.863 273.93 193.645 273.812C193.43 273.695 193.254 273.52 193.117 273.285C192.984 273.047 192.918 272.754 192.918 272.406C192.918 271.871 193.137 271.432 193.574 271.088C194.012 270.74 194.586 270.566 195.297 270.566C195.941 270.566 196.48 270.734 196.914 271.07C197.348 271.406 197.588 271.867 197.635 272.453H196.48C196.445 272.18 196.322 271.965 196.111 271.809C195.9 271.652 195.611 271.574 195.244 271.574C194.896 271.574 194.617 271.65 194.406 271.803C194.199 271.951 194.096 272.145 194.096 272.383C194.096 272.547 194.148 272.684 194.254 272.793C194.363 272.902 194.504 272.98 194.676 273.027C194.852 273.074 195.051 273.121 195.273 273.168C195.496 273.211 195.723 273.25 195.953 273.285C196.188 273.32 196.416 273.381 196.639 273.467C196.861 273.553 197.059 273.658 197.23 273.783C197.406 273.904 197.547 274.082 197.652 274.316C197.762 274.551 197.816 274.826 197.816 275.143C197.816 275.744 197.586 276.23 197.125 276.602C196.668 276.973 196.051 277.158 195.273 277.158C194.496 277.158 193.891 276.979 193.457 276.619C193.027 276.256 192.791 275.764 192.748 275.143ZM199.873 276.25C199.311 275.645 199.029 274.855 199.029 273.883C199.029 272.91 199.309 272.115 199.867 271.498C200.426 270.877 201.143 270.566 202.018 270.566C202.299 270.566 202.562 270.605 202.809 270.684C203.055 270.762 203.26 270.863 203.424 270.988C203.592 271.113 203.725 271.229 203.822 271.334C203.92 271.436 204.002 271.537 204.068 271.639H204.156V270.725H205.416V277H204.18V276.109H204.104C203.607 276.809 202.932 277.158 202.076 277.158C201.174 277.158 200.439 276.855 199.873 276.25ZM200.312 273.865C200.312 274.514 200.49 275.035 200.846 275.43C201.205 275.82 201.676 276.016 202.258 276.016C202.844 276.016 203.312 275.811 203.664 275.4C204.016 274.99 204.191 274.479 204.191 273.865C204.191 273.205 204.008 272.684 203.641 272.301C203.277 271.914 202.812 271.721 202.246 271.721C201.676 271.721 201.211 271.922 200.852 272.324C200.492 272.723 200.312 273.236 200.312 273.865ZM206.547 270.725H207.883L209.57 275.477H209.658L211.334 270.725H212.693L210.303 277H208.938L206.547 270.725ZM213.256 273.883C213.256 273.23 213.393 272.652 213.666 272.148C213.939 271.641 214.312 271.25 214.785 270.977C215.262 270.703 215.797 270.566 216.391 270.566C216.867 270.566 217.301 270.65 217.691 270.818C218.082 270.986 218.404 271.217 218.658 271.51C218.916 271.803 219.113 272.145 219.25 272.535C219.391 272.926 219.461 273.346 219.461 273.795V274.264H214.516C214.539 274.814 214.725 275.258 215.072 275.594C215.42 275.93 215.879 276.098 216.449 276.098C216.848 276.098 217.203 276.008 217.516 275.828C217.832 275.648 218.053 275.406 218.178 275.102H219.402C219.238 275.719 218.889 276.217 218.354 276.596C217.822 276.971 217.176 277.158 216.414 277.158C215.48 277.158 214.721 276.852 214.135 276.238C213.549 275.621 213.256 274.836 213.256 273.883ZM214.539 273.291H218.213C218.174 272.775 217.984 272.369 217.645 272.072C217.305 271.771 216.887 271.621 216.391 271.621C215.906 271.621 215.488 271.777 215.137 272.09C214.785 272.402 214.586 272.803 214.539 273.291ZM223.574 270.725H224.945L226.686 275.57H226.768L228.496 270.725H229.873L226.996 278.248C226.809 278.752 226.553 279.129 226.229 279.379C225.908 279.633 225.477 279.76 224.934 279.76H224.225V278.635H224.775C225.311 278.635 225.678 278.377 225.877 277.861L226.105 277.264L223.574 270.725ZM230.447 273.865C230.447 273.244 230.588 272.682 230.869 272.178C231.154 271.674 231.551 271.279 232.059 270.994C232.566 270.709 233.137 270.566 233.77 270.566C234.402 270.566 234.971 270.711 235.475 271C235.982 271.289 236.375 271.686 236.652 272.189C236.934 272.689 237.074 273.248 237.074 273.865C237.074 274.482 236.932 275.043 236.646 275.547C236.365 276.047 235.971 276.441 235.463 276.73C234.955 277.016 234.387 277.158 233.758 277.158C232.797 277.158 232.004 276.848 231.379 276.227C230.758 275.602 230.447 274.814 230.447 273.865ZM231.73 273.865C231.73 274.49 231.92 275.006 232.299 275.412C232.682 275.814 233.168 276.016 233.758 276.016C234.352 276.016 234.838 275.812 235.217 275.406C235.6 275 235.791 274.486 235.791 273.865C235.791 273.24 235.6 272.727 235.217 272.324C234.838 271.922 234.352 271.721 233.758 271.721C233.164 271.721 232.678 271.924 232.299 272.33C231.92 272.732 231.73 273.244 231.73 273.865ZM238.498 274.756V270.725H239.758V274.527C239.758 274.965 239.891 275.318 240.156 275.588C240.422 275.857 240.756 275.992 241.158 275.992C241.6 275.992 241.963 275.844 242.248 275.547C242.537 275.246 242.682 274.867 242.682 274.41V270.725H243.941V277H242.717V276.162H242.635C242.498 276.443 242.268 276.68 241.943 276.871C241.623 277.062 241.242 277.158 240.801 277.158C240.102 277.158 239.543 276.932 239.125 276.479C238.707 276.025 238.498 275.451 238.498 274.756ZM245.787 277V270.725H247V271.814H247.082C247.191 271.525 247.396 271.27 247.697 271.047C247.998 270.824 248.354 270.713 248.764 270.713H249.314V271.938H248.729C248.205 271.938 247.793 272.117 247.492 272.477C247.195 272.836 247.047 273.312 247.047 273.906V277H245.787ZM198.824 293.865C198.824 293.252 198.961 292.695 199.234 292.195C199.508 291.691 199.893 291.295 200.389 291.006C200.889 290.713 201.451 290.566 202.076 290.566C202.83 290.566 203.488 290.781 204.051 291.211C204.617 291.641 204.971 292.211 205.111 292.922H203.816C203.707 292.562 203.494 292.273 203.178 292.055C202.865 291.832 202.502 291.721 202.088 291.721C201.502 291.721 201.027 291.924 200.664 292.33C200.301 292.736 200.119 293.248 200.119 293.865C200.119 294.486 200.305 295 200.676 295.406C201.047 295.812 201.525 296.016 202.111 296.016C202.514 296.016 202.873 295.906 203.189 295.688C203.506 295.469 203.719 295.182 203.828 294.826H205.111C204.975 295.533 204.625 296.1 204.062 296.525C203.5 296.947 202.842 297.158 202.088 297.158C201.611 297.158 201.168 297.074 200.758 296.906C200.352 296.734 200.008 296.502 199.727 296.209C199.445 295.912 199.225 295.562 199.064 295.16C198.904 294.754 198.824 294.322 198.824 293.865ZM207.051 296.25C206.488 295.645 206.207 294.855 206.207 293.883C206.207 292.91 206.486 292.115 207.045 291.498C207.604 290.877 208.32 290.566 209.195 290.566C209.477 290.566 209.74 290.605 209.986 290.684C210.232 290.762 210.438 290.863 210.602 290.988C210.77 291.113 210.902 291.229 211 291.334C211.098 291.436 211.18 291.537 211.246 291.639H211.334V290.725H212.594V297H211.357V296.109H211.281C210.785 296.809 210.109 297.158 209.254 297.158C208.352 297.158 207.617 296.855 207.051 296.25ZM207.49 293.865C207.49 294.514 207.668 295.035 208.023 295.43C208.383 295.82 208.854 296.016 209.436 296.016C210.021 296.016 210.49 295.811 210.842 295.4C211.193 294.99 211.369 294.479 211.369 293.865C211.369 293.205 211.186 292.684 210.818 292.301C210.455 291.914 209.99 291.721 209.424 291.721C208.854 291.721 208.389 291.922 208.029 292.324C207.67 292.723 207.49 293.236 207.49 293.865ZM214.41 297V290.725H215.623V291.814H215.705C215.814 291.525 216.02 291.27 216.32 291.047C216.621 290.824 216.977 290.713 217.387 290.713H217.938V291.938H217.352C216.828 291.938 216.416 292.117 216.115 292.477C215.818 292.836 215.67 293.312 215.67 293.906V297H214.41ZM218.898 291.756V290.736H219.725C219.834 290.736 219.924 290.699 219.994 290.625C220.064 290.551 220.1 290.451 220.1 290.326V288.949H221.283V290.725H223.111V291.756H221.283V294.973C221.283 295.613 221.588 295.934 222.197 295.934H223.047V297H222.004C221.379 297 220.893 296.83 220.545 296.49C220.197 296.146 220.023 295.652 220.023 295.008V291.756H218.898ZM224.512 296.936C224.352 296.783 224.271 296.598 224.271 296.379C224.271 296.16 224.352 295.973 224.512 295.816C224.672 295.66 224.861 295.582 225.08 295.582C225.307 295.582 225.494 295.66 225.643 295.816C225.795 295.969 225.871 296.156 225.871 296.379C225.871 296.602 225.795 296.787 225.643 296.936C225.494 297.084 225.307 297.158 225.08 297.158C224.861 297.158 224.672 297.084 224.512 296.936Z" fill="#474F57"/>
<path d="M309.479 274.422H310.738C310.746 274.867 310.92 275.236 311.26 275.529C311.6 275.822 312.053 275.969 312.619 275.969C313.123 275.969 313.527 275.861 313.832 275.646C314.137 275.428 314.289 275.131 314.289 274.756C314.289 274.514 314.236 274.307 314.131 274.135C314.029 273.963 313.891 273.828 313.715 273.73C313.539 273.629 313.338 273.543 313.111 273.473C312.885 273.402 312.645 273.338 312.391 273.279C312.141 273.221 311.889 273.158 311.635 273.092C311.385 273.021 311.146 272.93 310.92 272.816C310.693 272.699 310.492 272.559 310.316 272.395C310.141 272.227 310 272.006 309.895 271.732C309.793 271.459 309.742 271.143 309.742 270.783C309.742 270.123 309.994 269.568 310.498 269.119C311.006 268.67 311.689 268.445 312.549 268.445C312.916 268.445 313.266 268.496 313.598 268.598C313.934 268.699 314.238 268.85 314.512 269.049C314.789 269.244 315.01 269.508 315.174 269.84C315.342 270.168 315.428 270.543 315.432 270.965H314.119C314.119 270.547 313.98 270.217 313.703 269.975C313.43 269.729 313.041 269.605 312.537 269.605C312.049 269.605 311.674 269.717 311.412 269.939C311.154 270.162 311.025 270.436 311.025 270.76C311.025 270.975 311.078 271.16 311.184 271.316C311.289 271.469 311.43 271.59 311.605 271.68C311.781 271.77 311.984 271.848 312.215 271.914C312.445 271.98 312.688 272.045 312.941 272.107C313.195 272.166 313.449 272.232 313.703 272.307C313.957 272.377 314.199 272.473 314.43 272.594C314.66 272.715 314.863 272.861 315.039 273.033C315.215 273.201 315.355 273.424 315.461 273.701C315.566 273.979 315.619 274.299 315.619 274.662C315.619 275.389 315.346 275.986 314.799 276.455C314.256 276.924 313.514 277.158 312.572 277.158C311.67 277.158 310.928 276.904 310.346 276.396C309.768 275.885 309.479 275.227 309.479 274.422ZM317.131 277V268H318.379V271.562H318.461C318.605 271.281 318.84 271.045 319.164 270.854C319.488 270.662 319.871 270.566 320.312 270.566C321.012 270.566 321.572 270.795 321.994 271.252C322.416 271.705 322.627 272.277 322.627 272.969V277H321.367V273.209C321.367 272.779 321.229 272.428 320.951 272.154C320.678 271.881 320.34 271.744 319.938 271.744C319.508 271.744 319.143 271.891 318.842 272.184C318.541 272.473 318.391 272.838 318.391 273.279V277H317.131ZM323.998 273.865C323.998 273.244 324.139 272.682 324.42 272.178C324.705 271.674 325.102 271.279 325.609 270.994C326.117 270.709 326.688 270.566 327.32 270.566C327.953 270.566 328.521 270.711 329.025 271C329.533 271.289 329.926 271.686 330.203 272.189C330.484 272.689 330.625 273.248 330.625 273.865C330.625 274.482 330.482 275.043 330.197 275.547C329.916 276.047 329.521 276.441 329.014 276.73C328.506 277.016 327.938 277.158 327.309 277.158C326.348 277.158 325.555 276.848 324.93 276.227C324.309 275.602 323.998 274.814 323.998 273.865ZM325.281 273.865C325.281 274.49 325.471 275.006 325.85 275.412C326.232 275.814 326.719 276.016 327.309 276.016C327.902 276.016 328.389 275.812 328.768 275.406C329.15 275 329.342 274.486 329.342 273.865C329.342 273.24 329.15 272.727 328.768 272.324C328.389 271.922 327.902 271.721 327.309 271.721C326.715 271.721 326.229 271.924 325.85 272.33C325.471 272.732 325.281 273.244 325.281 273.865ZM332.143 279.76V270.725H333.367V271.621H333.449C333.5 271.547 333.551 271.477 333.602 271.41C333.656 271.344 333.746 271.256 333.871 271.146C333.996 271.033 334.127 270.938 334.264 270.859C334.404 270.781 334.58 270.713 334.791 270.654C335.006 270.596 335.23 270.566 335.465 270.566C336.371 270.566 337.105 270.869 337.668 271.475C338.23 272.08 338.512 272.869 338.512 273.842C338.512 274.814 338.234 275.611 337.68 276.232C337.125 276.85 336.412 277.158 335.541 277.158C335.256 277.158 334.988 277.119 334.738 277.041C334.492 276.963 334.285 276.863 334.117 276.742C333.953 276.621 333.82 276.508 333.719 276.402C333.617 276.293 333.535 276.188 333.473 276.086H333.402V279.76H332.143ZM333.367 273.854C333.367 274.514 333.549 275.039 333.912 275.43C334.279 275.82 334.746 276.016 335.312 276.016C335.879 276.016 336.34 275.814 336.695 275.412C337.051 275.006 337.229 274.486 337.229 273.854C337.229 273.201 337.051 272.682 336.695 272.295C336.344 271.904 335.875 271.709 335.289 271.709C334.703 271.709 334.236 271.914 333.889 272.324C333.541 272.73 333.367 273.24 333.367 273.854ZM343.709 276.25C343.146 275.645 342.865 274.855 342.865 273.883C342.865 272.91 343.145 272.115 343.703 271.498C344.262 270.877 344.979 270.566 345.854 270.566C346.135 270.566 346.398 270.605 346.645 270.684C346.891 270.762 347.096 270.863 347.26 270.988C347.428 271.113 347.561 271.229 347.658 271.334C347.756 271.436 347.838 271.537 347.904 271.639H347.992V270.725H349.252V277H348.016V276.109H347.939C347.443 276.809 346.768 277.158 345.912 277.158C345.01 277.158 344.275 276.855 343.709 276.25ZM344.148 273.865C344.148 274.514 344.326 275.035 344.682 275.43C345.041 275.82 345.512 276.016 346.094 276.016C346.68 276.016 347.148 275.811 347.5 275.4C347.852 274.99 348.027 274.479 348.027 273.865C348.027 273.205 347.844 272.684 347.477 272.301C347.113 271.914 346.648 271.721 346.082 271.721C345.512 271.721 345.047 271.922 344.688 272.324C344.328 272.723 344.148 273.236 344.148 273.865ZM353.975 275.143H355.164C355.246 275.795 355.703 276.121 356.535 276.121C356.941 276.121 357.256 276.039 357.479 275.875C357.705 275.707 357.818 275.482 357.818 275.201C357.818 274.994 357.75 274.828 357.613 274.703C357.48 274.574 357.305 274.48 357.086 274.422C356.871 274.359 356.633 274.307 356.371 274.264C356.109 274.221 355.848 274.164 355.586 274.094C355.328 274.023 355.09 273.93 354.871 273.812C354.656 273.695 354.48 273.52 354.344 273.285C354.211 273.047 354.145 272.754 354.145 272.406C354.145 271.871 354.363 271.432 354.801 271.088C355.238 270.74 355.812 270.566 356.523 270.566C357.168 270.566 357.707 270.734 358.141 271.07C358.574 271.406 358.814 271.867 358.861 272.453H357.707C357.672 272.18 357.549 271.965 357.338 271.809C357.127 271.652 356.838 271.574 356.471 271.574C356.123 271.574 355.844 271.65 355.633 271.803C355.426 271.951 355.322 272.145 355.322 272.383C355.322 272.547 355.375 272.684 355.48 272.793C355.59 272.902 355.73 272.98 355.902 273.027C356.078 273.074 356.277 273.121 356.5 273.168C356.723 273.211 356.949 273.25 357.18 273.285C357.414 273.32 357.643 273.381 357.865 273.467C358.088 273.553 358.285 273.658 358.457 273.783C358.633 273.904 358.773 274.082 358.879 274.316C358.988 274.551 359.043 274.826 359.043 275.143C359.043 275.744 358.812 276.23 358.352 276.602C357.895 276.973 357.277 277.158 356.5 277.158C355.723 277.158 355.117 276.979 354.684 276.619C354.254 276.256 354.018 275.764 353.975 275.143ZM361.1 276.25C360.537 275.645 360.256 274.855 360.256 273.883C360.256 272.91 360.535 272.115 361.094 271.498C361.652 270.877 362.369 270.566 363.244 270.566C363.525 270.566 363.789 270.605 364.035 270.684C364.281 270.762 364.486 270.863 364.65 270.988C364.818 271.113 364.951 271.229 365.049 271.334C365.146 271.436 365.229 271.537 365.295 271.639H365.383V270.725H366.643V277H365.406V276.109H365.33C364.834 276.809 364.158 277.158 363.303 277.158C362.4 277.158 361.666 276.855 361.1 276.25ZM361.539 273.865C361.539 274.514 361.717 275.035 362.072 275.43C362.432 275.82 362.902 276.016 363.484 276.016C364.07 276.016 364.539 275.811 364.891 275.4C365.242 274.99 365.418 274.479 365.418 273.865C365.418 273.205 365.234 272.684 364.867 272.301C364.504 271.914 364.039 271.721 363.473 271.721C362.902 271.721 362.438 271.922 362.078 272.324C361.719 272.723 361.539 273.236 361.539 273.865ZM367.773 270.725H369.109L370.797 275.477H370.885L372.561 270.725H373.92L371.529 277H370.164L367.773 270.725ZM374.482 273.883C374.482 273.23 374.619 272.652 374.893 272.148C375.166 271.641 375.539 271.25 376.012 270.977C376.488 270.703 377.023 270.566 377.617 270.566C378.094 270.566 378.527 270.65 378.918 270.818C379.309 270.986 379.631 271.217 379.885 271.51C380.143 271.803 380.34 272.145 380.477 272.535C380.617 272.926 380.688 273.346 380.688 273.795V274.264H375.742C375.766 274.814 375.951 275.258 376.299 275.594C376.646 275.93 377.105 276.098 377.676 276.098C378.074 276.098 378.43 276.008 378.742 275.828C379.059 275.648 379.279 275.406 379.404 275.102H380.629C380.465 275.719 380.115 276.217 379.58 276.596C379.049 276.971 378.402 277.158 377.641 277.158C376.707 277.158 375.947 276.852 375.361 276.238C374.775 275.621 374.482 274.836 374.482 273.883ZM375.766 273.291H379.439C379.4 272.775 379.211 272.369 378.871 272.072C378.531 271.771 378.113 271.621 377.617 271.621C377.133 271.621 376.715 271.777 376.363 272.09C376.012 272.402 375.812 272.803 375.766 273.291ZM382.615 276.25C382.053 275.645 381.771 274.855 381.771 273.883C381.771 272.91 382.051 272.115 382.609 271.498C383.168 270.877 383.885 270.566 384.76 270.566C385.041 270.566 385.305 270.605 385.551 270.684C385.797 270.762 386.002 270.863 386.166 270.988C386.334 271.113 386.467 271.229 386.564 271.334C386.662 271.436 386.744 271.537 386.811 271.639H386.898V268H388.158V277H386.922V276.109H386.846C386.35 276.809 385.674 277.158 384.818 277.158C383.916 277.158 383.182 276.855 382.615 276.25ZM383.055 273.865C383.055 274.514 383.232 275.035 383.588 275.43C383.947 275.82 384.418 276.016 385 276.016C385.586 276.016 386.055 275.811 386.406 275.4C386.758 274.99 386.934 274.479 386.934 273.865C386.934 273.205 386.75 272.684 386.383 272.301C386.02 271.914 385.555 271.721 384.988 271.721C384.418 271.721 383.953 271.922 383.594 272.324C383.234 272.723 383.055 273.236 383.055 273.865ZM335.324 293.865C335.324 293.252 335.461 292.695 335.734 292.195C336.008 291.691 336.393 291.295 336.889 291.006C337.389 290.713 337.951 290.566 338.576 290.566C339.33 290.566 339.988 290.781 340.551 291.211C341.117 291.641 341.471 292.211 341.611 292.922H340.316C340.207 292.562 339.994 292.273 339.678 292.055C339.365 291.832 339.002 291.721 338.588 291.721C338.002 291.721 337.527 291.924 337.164 292.33C336.801 292.736 336.619 293.248 336.619 293.865C336.619 294.486 336.805 295 337.176 295.406C337.547 295.812 338.025 296.016 338.611 296.016C339.014 296.016 339.373 295.906 339.689 295.688C340.006 295.469 340.219 295.182 340.328 294.826H341.611C341.475 295.533 341.125 296.1 340.562 296.525C340 296.947 339.342 297.158 338.588 297.158C338.111 297.158 337.668 297.074 337.258 296.906C336.852 296.734 336.508 296.502 336.227 296.209C335.945 295.912 335.725 295.562 335.564 295.16C335.404 294.754 335.324 294.322 335.324 293.865ZM343.551 296.25C342.988 295.645 342.707 294.855 342.707 293.883C342.707 292.91 342.986 292.115 343.545 291.498C344.104 290.877 344.82 290.566 345.695 290.566C345.977 290.566 346.24 290.605 346.486 290.684C346.732 290.762 346.938 290.863 347.102 290.988C347.27 291.113 347.402 291.229 347.5 291.334C347.598 291.436 347.68 291.537 347.746 291.639H347.834V290.725H349.094V297H347.857V296.109H347.781C347.285 296.809 346.609 297.158 345.754 297.158C344.852 297.158 344.117 296.855 343.551 296.25ZM343.99 293.865C343.99 294.514 344.168 295.035 344.523 295.43C344.883 295.82 345.354 296.016 345.936 296.016C346.521 296.016 346.99 295.811 347.342 295.4C347.693 294.99 347.869 294.479 347.869 293.865C347.869 293.205 347.686 292.684 347.318 292.301C346.955 291.914 346.49 291.721 345.924 291.721C345.354 291.721 344.889 291.922 344.529 292.324C344.17 292.723 343.99 293.236 343.99 293.865ZM350.91 297V290.725H352.123V291.814H352.205C352.314 291.525 352.52 291.27 352.82 291.047C353.121 290.824 353.477 290.713 353.887 290.713H354.438V291.938H353.852C353.328 291.938 352.916 292.117 352.615 292.477C352.318 292.836 352.17 293.312 352.17 293.906V297H350.91ZM355.398 291.756V290.736H356.225C356.334 290.736 356.424 290.699 356.494 290.625C356.564 290.551 356.6 290.451 356.6 290.326V288.949H357.783V290.725H359.611V291.756H357.783V294.973C357.783 295.613 358.088 295.934 358.697 295.934H359.547V297H358.504C357.879 297 357.393 296.83 357.045 296.49C356.697 296.146 356.523 295.652 356.523 295.008V291.756H355.398ZM361.012 296.936C360.852 296.783 360.771 296.598 360.771 296.379C360.771 296.16 360.852 295.973 361.012 295.816C361.172 295.66 361.361 295.582 361.58 295.582C361.807 295.582 361.994 295.66 362.143 295.816C362.295 295.969 362.371 296.156 362.371 296.379C362.371 296.602 362.295 296.787 362.143 296.936C361.994 297.084 361.807 297.158 361.58 297.158C361.361 297.158 361.172 297.084 361.012 296.936Z" fill="#474F57"/>
<g clip-path="url(#clip0_2447_212)">
<path d="M351.18 169.063C353.355 165.296 358.171 164.006 361.937 166.18C364.765 167.813 366.195 170.932 365.816 173.976C365.774 174.312 365.71 174.647 365.624 174.979C365.385 175.898 364.266 176.156 363.63 175.539L363.559 175.464L361.87 173.523C361.119 172.659 361.889 171.356 362.979 171.552L363.079 171.574L363.467 171.676C363.117 170.232 362.199 168.929 360.812 168.129C358.122 166.575 354.682 167.497 353.128 170.188C351.575 172.878 352.497 176.318 355.187 177.871C357.426 179.164 360.185 178.743 361.944 177.013C362.386 176.578 363.099 176.583 363.535 177.026C363.97 177.469 363.965 178.181 363.522 178.617C361.061 181.038 357.199 181.631 354.062 179.82C350.296 177.645 349.005 172.829 351.18 169.063ZM358 168.125C358.585 168.125 359.065 168.571 359.12 169.142L359.125 169.25V172.534L360.67 174.08C361.11 174.519 361.11 175.231 360.67 175.671C360.258 176.082 359.607 176.108 359.165 175.748L359.079 175.671L357.204 173.796C357.02 173.611 356.906 173.369 356.88 173.111L356.875 173V169.25C356.875 168.629 357.378 168.125 358 168.125Z" fill="#0564FF"/>
</g>
<g clip-path="url(#clip1_2447_212)">
<path fill-rule="evenodd" clip-rule="evenodd" d="M390.94 165.575C391.495 165.02 392.376 164.991 392.965 165.488L393.061 165.575L394.485 167H396.5C397.291 167 397.939 167.612 397.996 168.388L398 168.5V170.515L399.425 171.939C399.98 172.494 400.009 173.376 399.512 173.965L399.425 174.061L398 175.485V177.5C398 178.291 397.388 178.939 396.612 178.996L396.5 179H394.485L393.061 180.425C392.506 180.98 391.624 181.009 391.035 180.512L390.94 180.425L389.515 179H387.5C386.709 179 386.062 178.388 386.004 177.612L386 177.5V175.485L384.576 174.061C384.021 173.506 383.991 172.624 384.488 172.035L384.576 171.939L386 170.515V168.5C386 167.709 386.612 167.061 387.388 167.004L387.5 167H389.515L390.94 165.575ZM392 170.75C390.758 170.75 389.75 171.757 389.75 173C389.75 174.243 390.758 175.25 392 175.25C393.243 175.25 394.25 174.243 394.25 173C394.25 171.757 393.243 170.75 392 170.75Z" fill="#0564FF"/>
</g>
<path d="M413.385 127.722C414.709 127.722 415.782 126.649 415.782 125.325C415.782 124.001 414.709 122.928 413.385 122.928C412.061 122.928 410.988 124.001 410.988 125.325C410.988 126.649 412.061 127.722 413.385 127.722Z" fill="#15357A"/>
<path d="M422.466 127.753C423.79 127.753 424.863 126.68 424.863 125.356C424.863 124.032 423.79 122.959 422.466 122.959C421.142 122.959 420.069 124.032 420.069 125.356C420.069 126.68 421.142 127.753 422.466 127.753Z" fill="#15357A"/>
<path d="M409.291 108.813L407.285 103H403.308C402.585 103 402 103.585 402 104.308C402 105.03 402.585 105.616 403.308 105.616H405.421L407.343 111.186H405.652C405.073 111.186 404.605 111.655 404.605 112.232C404.605 112.81 405.073 113.279 405.652 113.279H405.709H408.066H411.725C412.302 113.279 412.771 113.747 412.771 114.325C412.771 114.902 412.302 115.371 411.725 115.371H408.788H407.024C406.446 115.371 405.977 115.84 405.977 116.417C405.977 116.985 406.43 117.444 406.993 117.461H411.724C412.302 117.461 412.77 117.929 412.77 118.507C412.77 119.085 412.302 119.553 411.724 119.553H410.231L411.032 121.875H423.014C424.188 121.875 425.289 121.015 425.572 119.876L428.329 108.814L409.291 108.813Z" fill="#15357A"/>
<defs>
<filter id="filter0_d_2447_212" x="139" y="156" width="281" height="167" filterUnits="userSpaceOnUse" color-interpolation-filters="sRGB">
<feFlood flood-opacity="0" result="BackgroundImageFix"/>
<feColorMatrix in="SourceAlpha" type="matrix" values="0 0 0 0 0 0 0 0 0 0 0 0 0 0 0 0 0 0 127 0" result="hardAlpha"/>
<feOffset dy="4"/>
<feGaussianBlur stdDeviation="2"/>
<feComposite in2="hardAlpha" operator="out"/>
<feColorMatrix type="matrix" values="0 0 0 0 0 0 0 0 0 0 0 0 0 0 0 0 0 0 0.25 0"/>
<feBlend mode="normal" in2="BackgroundImageFix" result="effect1_dropShadow_2447_212"/>
<feBlend mode="normal" in="SourceGraphic" in2="effect1_dropShadow_2447_212" result="shape"/>
</filter>
<clipPath id="clip0_2447_212">
<rect width="18" height="18" fill="white" transform="translate(349 164)"/>
</clipPath>
<clipPath id="clip1_2447_212">
<rect width="18" height="18" fill="white" transform="translate(383 164)"/>
</clipPath>
</defs>
</svg>
