<svg width="460" height="516" viewBox="0 0 460 516" fill="none" xmlns="http://www.w3.org/2000/svg">
<rect width="460" height="516" rx="20" fill="#F0F0F0"/>
<path d="M0 20C0 8.95431 8.95431 0 20 0H440C451.046 0 460 8.95431 460 20V55H0V20Z" fill="#DEE1E5"/>
<path d="M0.5 89.5H352.5C366.307 89.5 377.5 100.693 377.5 114.5C377.5 128.307 366.307 139.5 352.5 139.5H0.5V89.5Z" fill="#F0F0F0" stroke="#ABACAC"/>
<circle cx="415" cy="115" r="23" fill="#DEE1E5"/>
<g filter="url(#filter0_d_1146_236)">
<rect x="143" y="156" width="273" height="247" rx="15" fill="#F0F0F0"/>
</g>
<path d="M155.398 174.346H156.945C156.953 174.736 157.107 175.059 157.408 175.312C157.713 175.566 158.123 175.693 158.639 175.693C159.092 175.693 159.449 175.604 159.711 175.424C159.977 175.24 160.109 174.99 160.109 174.674C160.109 174.471 160.059 174.297 159.957 174.152C159.855 174.008 159.719 173.895 159.547 173.812C159.375 173.73 159.178 173.66 158.955 173.602C158.732 173.539 158.496 173.48 158.246 173.426C158 173.367 157.754 173.305 157.508 173.238C157.262 173.168 157.027 173.072 156.805 172.951C156.582 172.83 156.385 172.684 156.213 172.512C156.041 172.34 155.904 172.115 155.803 171.838C155.701 171.557 155.65 171.232 155.65 170.865C155.65 170.174 155.91 169.598 156.43 169.137C156.949 168.676 157.656 168.445 158.551 168.445C158.957 168.445 159.336 168.5 159.688 168.609C160.039 168.715 160.352 168.873 160.625 169.084C160.902 169.291 161.123 169.562 161.287 169.898C161.451 170.23 161.539 170.609 161.551 171.035H159.957C159.949 170.68 159.822 170.396 159.576 170.186C159.334 169.975 158.992 169.869 158.551 169.869C158.125 169.869 157.799 169.961 157.572 170.145C157.346 170.328 157.232 170.561 157.232 170.842C157.232 171.029 157.283 171.189 157.385 171.322C157.49 171.451 157.629 171.553 157.801 171.627C157.977 171.701 158.178 171.768 158.404 171.826C158.631 171.881 158.869 171.938 159.119 171.996C159.369 172.051 159.619 172.113 159.869 172.184C160.119 172.25 160.357 172.346 160.584 172.471C160.811 172.592 161.01 172.738 161.182 172.91C161.357 173.082 161.496 173.309 161.598 173.59C161.703 173.867 161.756 174.188 161.756 174.551C161.756 175.316 161.473 175.943 160.906 176.432C160.344 176.916 159.57 177.158 158.586 177.158C157.629 177.158 156.857 176.9 156.271 176.385C155.689 175.865 155.398 175.186 155.398 174.346ZM163.168 177V168.598H164.762V171.996H168.482V168.598H170.076V177H168.482V173.508H164.762V177H163.168ZM171.547 172.799C171.547 171.986 171.738 171.248 172.121 170.584C172.504 169.916 173.033 169.393 173.709 169.014C174.385 168.635 175.141 168.445 175.977 168.445C176.602 168.445 177.188 168.559 177.734 168.785C178.285 169.008 178.754 169.312 179.141 169.699C179.531 170.086 179.838 170.549 180.061 171.088C180.287 171.623 180.4 172.193 180.4 172.799C180.4 173.611 180.209 174.352 179.826 175.02C179.443 175.684 178.912 176.207 178.232 176.59C177.557 176.969 176.801 177.158 175.965 177.158C175.129 177.158 174.373 176.971 173.697 176.596C173.025 176.217 172.498 175.695 172.115 175.031C171.736 174.363 171.547 173.619 171.547 172.799ZM173.205 172.799C173.205 173.619 173.465 174.297 173.984 174.832C174.508 175.367 175.172 175.635 175.977 175.635C176.777 175.635 177.438 175.367 177.957 174.832C178.477 174.297 178.736 173.619 178.736 172.799C178.736 171.99 178.475 171.316 177.951 170.777C177.432 170.238 176.773 169.969 175.977 169.969C175.172 169.969 174.508 170.238 173.984 170.777C173.465 171.316 173.205 171.99 173.205 172.799ZM181.871 177V168.598H185.053C185.865 168.598 186.535 168.85 187.062 169.354C187.594 169.857 187.859 170.51 187.859 171.311C187.859 171.83 187.734 172.301 187.484 172.723C187.234 173.145 186.895 173.473 186.465 173.707C186.039 173.941 185.568 174.059 185.053 174.059H183.465V177H181.871ZM183.465 172.693H184.883C185.281 172.693 185.604 172.566 185.85 172.312C186.1 172.055 186.225 171.721 186.225 171.311C186.225 170.908 186.102 170.584 185.855 170.338C185.609 170.092 185.285 169.969 184.883 169.969H183.465V172.693ZM187.678 177L190.666 168.598H192.67L195.67 177H193.977L193.391 175.342H189.898L189.318 177H187.678ZM190.361 173.918H192.934L191.697 170.379H191.598L190.361 173.918ZM195.969 177L198.623 172.705L196.104 168.598H197.914L199.607 171.434H199.678L201.383 168.598H203.193L200.662 172.705L203.316 177H201.465L199.666 173.965H199.596L197.809 177H195.969ZM203.709 177L206.697 168.598H208.701L211.701 177H210.008L209.422 175.342H205.93L205.35 177H203.709ZM206.393 173.918H208.965L207.729 170.379H207.629L206.393 173.918Z" fill="#474F57"/>
<g clip-path="url(#clip0_1146_236)">
<path d="M351.18 169.063C353.355 165.296 358.171 164.006 361.938 166.18C364.765 167.813 366.195 170.932 365.816 173.976C365.774 174.312 365.711 174.647 365.624 174.979C365.385 175.898 364.266 176.156 363.63 175.539L363.559 175.464L361.871 173.523C361.119 172.659 361.889 171.356 362.979 171.552L363.079 171.574L363.467 171.676C363.117 170.232 362.199 168.929 360.813 168.129C358.122 166.575 354.682 167.497 353.129 170.188C351.575 172.878 352.497 176.318 355.188 177.871C357.426 179.164 360.186 178.743 361.944 177.013C362.387 176.578 363.099 176.583 363.535 177.026C363.971 177.469 363.965 178.181 363.522 178.617C361.061 181.038 357.199 181.631 354.063 179.82C350.296 177.645 349.006 172.829 351.18 169.063ZM358 168.125C358.585 168.125 359.065 168.571 359.12 169.142L359.125 169.25V172.534L360.671 174.08C361.11 174.519 361.11 175.231 360.671 175.671C360.259 176.082 359.607 176.108 359.165 175.748L359.08 175.671L357.205 173.796C357.02 173.611 356.906 173.369 356.881 173.111L356.875 173V169.25C356.875 168.629 357.379 168.125 358 168.125Z" fill="#0564FF"/>
</g>
<g clip-path="url(#clip1_1146_236)">
<path fill-rule="evenodd" clip-rule="evenodd" d="M390.939 165.575C391.494 165.02 392.376 164.991 392.965 165.488L393.061 165.575L394.485 167H396.5C397.291 167 397.939 167.612 397.996 168.388L398 168.5V170.515L399.425 171.939C399.98 172.494 400.009 173.376 399.512 173.965L399.425 174.061L398 175.485V177.5C398 178.291 397.388 178.939 396.612 178.996L396.5 179H394.485L393.061 180.425C392.506 180.98 391.624 181.009 391.035 180.512L390.939 180.425L389.515 179H387.5C386.709 179 386.061 178.388 386.004 177.612L386 177.5V175.485L384.575 174.061C384.02 173.506 383.991 172.624 384.488 172.035L384.575 171.939L386 170.515V168.5C386 167.709 386.612 167.061 387.388 167.004L387.5 167H389.515L390.939 165.575ZM392 170.75C390.757 170.75 389.75 171.757 389.75 173C389.75 174.243 390.757 175.25 392 175.25C393.243 175.25 394.25 174.243 394.25 173C394.25 171.757 393.243 170.75 392 170.75Z" fill="#0564FF"/>
</g>
<path d="M413.385 127.722C414.709 127.722 415.782 126.649 415.782 125.325C415.782 124.001 414.709 122.928 413.385 122.928C412.061 122.928 410.988 124.001 410.988 125.325C410.988 126.649 412.061 127.722 413.385 127.722Z" fill="#15357A"/>
<path d="M422.466 127.753C423.789 127.753 424.863 126.68 424.863 125.356C424.863 124.032 423.789 122.959 422.466 122.959C421.142 122.959 420.069 124.032 420.069 125.356C420.069 126.68 421.142 127.753 422.466 127.753Z" fill="#15357A"/>
<path d="M409.291 108.813L407.285 103H403.308C402.585 103 402 103.585 402 104.308C402 105.03 402.585 105.616 403.308 105.616H405.421L407.343 111.186H405.652C405.073 111.186 404.605 111.655 404.605 112.232C404.605 112.81 405.073 113.279 405.652 113.279H405.709H408.066H411.725C412.302 113.279 412.771 113.747 412.771 114.325C412.771 114.902 412.302 115.371 411.725 115.371H408.788H407.024C406.446 115.371 405.977 115.84 405.977 116.417C405.977 116.985 406.43 117.444 406.993 117.461H411.724C412.302 117.461 412.77 117.929 412.77 118.507C412.77 119.085 412.302 119.553 411.724 119.553H410.231L411.032 121.875H423.014C424.188 121.875 425.289 121.015 425.572 119.876L428.329 108.814L409.291 108.813Z" fill="#15357A"/>
<path d="M162.784 271.901C163.689 271.901 164.422 271.168 164.422 270.263C164.422 269.357 163.689 268.624 162.784 268.624C161.878 268.624 161.145 269.357 161.145 270.263C161.145 271.168 161.878 271.901 162.784 271.901Z" fill="#15357A"/>
<path d="M168.992 271.923C169.897 271.923 170.63 271.189 170.63 270.284C170.63 269.379 169.897 268.645 168.992 268.645C168.086 268.645 167.353 269.379 167.353 270.284C167.353 271.189 168.086 271.923 168.992 271.923Z" fill="#15357A"/>
<path d="M159.985 258.974L158.613 255H155.894C155.4 255 155 255.4 155 255.894C155 256.388 155.4 256.788 155.894 256.788H157.339L158.653 260.596H157.496C157.101 260.596 156.781 260.917 156.781 261.312C156.781 261.707 157.101 262.027 157.496 262.027H157.535H159.147H161.648C162.043 262.027 162.364 262.347 162.364 262.742C162.364 263.137 162.043 263.458 161.648 263.458H159.64H158.434C158.04 263.458 157.719 263.778 157.719 264.173C157.719 264.561 158.029 264.875 158.413 264.886H161.648C162.043 264.886 162.363 265.207 162.363 265.601C162.363 265.997 162.043 266.317 161.648 266.317H160.627L161.175 267.904H169.367C170.169 267.904 170.921 267.316 171.115 266.538L173 258.975L159.985 258.974Z" fill="#15357A"/>
<g clip-path="url(#clip2_1146_236)">
<path fill-rule="evenodd" clip-rule="evenodd" d="M169.293 213.707C168.902 213.317 168.902 212.684 169.293 212.293L174.95 206.636C175.34 206.246 175.973 206.246 176.364 206.636C176.754 207.027 176.754 207.66 176.364 208.05L171.414 213L176.364 217.95C176.754 218.34 176.754 218.974 176.364 219.364C175.973 219.755 175.34 219.755 174.95 219.364L169.293 213.707Z" fill="#0564FF"/>
</g>
<path d="M183.066 217V208.598H185.984C186.773 208.598 187.396 208.801 187.854 209.207C188.311 209.613 188.539 210.135 188.539 210.771C188.539 211.17 188.449 211.521 188.27 211.826C188.094 212.131 187.844 212.371 187.52 212.547V212.617C187.672 212.676 187.818 212.756 187.959 212.857C188.1 212.959 188.238 213.088 188.375 213.244C188.512 213.4 188.621 213.596 188.703 213.83C188.785 214.061 188.826 214.312 188.826 214.586C188.826 215.078 188.705 215.51 188.463 215.881C188.225 216.252 187.91 216.531 187.52 216.719C187.129 216.906 186.697 217 186.225 217H183.066ZM184.326 215.898H185.949C186.41 215.898 186.781 215.781 187.062 215.547C187.344 215.312 187.484 214.965 187.484 214.504C187.484 214.199 187.406 213.941 187.25 213.73C187.094 213.52 186.896 213.371 186.658 213.285C186.424 213.195 186.158 213.15 185.861 213.15H184.326V215.898ZM184.326 212.143H185.879C186.293 212.143 186.625 212.027 186.875 211.797C187.129 211.566 187.256 211.266 187.256 210.895C187.256 210.539 187.129 210.252 186.875 210.033C186.625 209.814 186.301 209.705 185.902 209.705H184.326V212.143ZM190.742 216.25C190.18 215.645 189.898 214.855 189.898 213.883C189.898 212.91 190.178 212.115 190.736 211.498C191.295 210.877 192.012 210.566 192.887 210.566C193.168 210.566 193.432 210.605 193.678 210.684C193.924 210.762 194.129 210.863 194.293 210.988C194.461 211.113 194.594 211.229 194.691 211.334C194.789 211.436 194.871 211.537 194.938 211.639H195.025V210.725H196.285V217H195.049V216.109H194.973C194.477 216.809 193.801 217.158 192.945 217.158C192.043 217.158 191.309 216.855 190.742 216.25ZM191.182 213.865C191.182 214.514 191.359 215.035 191.715 215.43C192.074 215.82 192.545 216.016 193.127 216.016C193.713 216.016 194.182 215.811 194.533 215.4C194.885 214.99 195.061 214.479 195.061 213.865C195.061 213.205 194.877 212.684 194.51 212.301C194.146 211.914 193.682 211.721 193.115 211.721C192.545 211.721 192.08 211.922 191.721 212.324C191.361 212.723 191.182 213.236 191.182 213.865ZM197.656 213.865C197.656 213.252 197.793 212.695 198.066 212.195C198.34 211.691 198.725 211.295 199.221 211.006C199.721 210.713 200.283 210.566 200.908 210.566C201.662 210.566 202.32 210.781 202.883 211.211C203.449 211.641 203.803 212.211 203.943 212.922H202.648C202.539 212.562 202.326 212.273 202.01 212.055C201.697 211.832 201.334 211.721 200.92 211.721C200.334 211.721 199.859 211.924 199.496 212.33C199.133 212.736 198.951 213.248 198.951 213.865C198.951 214.486 199.137 215 199.508 215.406C199.879 215.812 200.357 216.016 200.943 216.016C201.346 216.016 201.705 215.906 202.021 215.688C202.338 215.469 202.551 215.182 202.66 214.826H203.943C203.807 215.533 203.457 216.1 202.895 216.525C202.332 216.947 201.674 217.158 200.92 217.158C200.443 217.158 200 217.074 199.59 216.906C199.184 216.734 198.84 216.502 198.559 216.209C198.277 215.912 198.057 215.562 197.896 215.16C197.736 214.754 197.656 214.322 197.656 213.865ZM205.484 217V208H206.744V213.402H206.814L209.193 210.725H210.764L208.578 213.098L210.922 217H209.492L207.717 214.035L206.744 215.102V217H205.484Z" fill="#0564FF"/>
<rect x="155.5" y="194.5" width="76" height="36" rx="4.5" stroke="#0564FF"/>
<path d="M181.09 269.13C179.02 269.13 177.5 267.58 177.5 265.5C177.5 263.44 179.03 261.87 181.1 261.87C182.71 261.87 183.93 262.82 184.39 264.24H183.52C183.15 263.18 182.18 262.63 181.1 262.63C179.55 262.63 178.34 263.86 178.34 265.5C178.34 267.16 179.55 268.37 181.1 268.37C182.18 268.37 183.14 267.83 183.49 266.76H184.39C183.95 268.21 182.7 269.13 181.09 269.13ZM187.981 269.13C186.451 269.13 185.391 268 185.391 266.41C185.391 264.81 186.451 263.67 187.921 263.67C189.011 263.67 189.591 264.37 189.751 264.64H189.811V263.8H190.601V269H189.841V268.18H189.781C189.651 268.37 189.111 269.13 187.981 269.13ZM188.031 268.42C189.161 268.42 189.841 267.5 189.841 266.41C189.841 265.13 189.041 264.39 188.011 264.39C186.941 264.39 186.201 265.23 186.201 266.41C186.201 267.63 186.941 268.42 188.031 268.42ZM192.304 269V263.8H193.084V264.77H193.144C193.294 264.33 193.804 263.8 194.564 263.8H195.004V264.59H194.574C193.624 264.59 193.094 265.33 193.094 266.32V269H192.304ZM198.338 269C197.378 269 196.788 268.48 196.788 267.43V264.47H195.808V263.8H196.588C196.728 263.8 196.838 263.71 196.838 263.54V262.29H197.578V263.8H199.178V264.47H197.578V267.42C197.578 267.98 197.788 268.31 198.388 268.31H199.108V269H198.338ZM203.479 269V262H204.289V269H203.479ZM206.291 269V262H208.371C210.591 262 211.881 263.46 211.881 265.5C211.881 267.67 210.591 269 208.371 269H206.291ZM207.101 268.28H208.371C210.031 268.28 211.051 267.26 211.051 265.5C211.051 263.81 210.051 262.73 208.371 262.73H207.101V268.28Z" fill="#474F57"/>
<rect x="155.5" y="284.5" width="246" height="45" rx="4.5" fill="#F0F0F0" stroke="#474F57"/>
<path d="M186.456 317.364C183.068 317.364 180.352 315.208 180.1 311.904H182.228C182.592 314.06 184.216 315.264 186.372 315.264C188.724 315.264 190.628 313.444 190.628 310.812C190.628 308.292 188.836 306.528 186.148 306.528C183.964 306.528 182.9 307.9 182.564 308.46H180.492L181.164 297.4H191.692V299.472H183.152L182.732 305.772H182.9C182.9 305.772 184.104 304.456 186.54 304.456C190.264 304.456 192.924 307.396 192.924 310.812C192.924 314.536 190.068 317.364 186.456 317.364ZM203.827 317.364C199.963 317.364 197.275 315.068 197.275 311.512C197.275 308.628 199.347 307.116 200.579 306.612V306.444C199.543 305.912 198.115 304.484 198.115 302.272C198.115 299.136 200.691 297.036 203.827 297.036C206.935 297.036 209.539 299.136 209.539 302.272C209.539 304.484 208.111 305.912 207.075 306.444V306.612C208.307 307.116 210.379 308.628 210.379 311.512C210.379 315.068 207.691 317.364 203.827 317.364ZM203.827 305.604C205.871 305.604 207.243 304.12 207.243 302.356C207.243 300.592 205.955 299.136 203.827 299.136C201.699 299.136 200.411 300.592 200.411 302.356C200.411 304.12 201.783 305.604 203.827 305.604ZM203.827 315.292C206.543 315.292 208.055 313.556 208.055 311.512C208.055 309.048 206.123 307.676 203.827 307.676C201.531 307.676 199.599 309.048 199.599 311.512C199.599 313.556 201.111 315.292 203.827 315.292ZM220.933 317.336C216.901 317.336 214.857 314.144 214.857 311.596H216.985C217.041 313.64 218.637 315.208 220.933 315.208C223.425 315.208 225.133 313.64 225.133 311.064C225.133 308.6 223.285 306.976 220.877 306.976H218.609V305.044L223.789 299.64V299.472H215.305V297.4H226.701V299.5L221.437 304.848V305.016C224.769 305.128 227.457 307.592 227.457 311.008C227.457 314.34 225.105 317.336 220.933 317.336ZM239.563 317.364C236.399 317.364 234.887 315.236 234.523 314.704H234.355V317H232.227V296H234.439V304.792H234.607C235.055 304.036 236.679 302.076 239.731 302.076C243.847 302.076 246.815 305.268 246.815 309.748C246.815 314.2 243.847 317.364 239.563 317.364ZM239.423 315.376C242.475 315.376 244.547 313.164 244.547 309.748C244.547 306.444 242.475 304.092 239.479 304.092C236.595 304.092 234.355 306.164 234.355 309.748C234.355 312.8 236.259 315.376 239.423 315.376ZM258.579 317V312.044H250.039V310.252L256.283 297.4H258.663L252.671 309.86V310.028H258.579V305.604H260.819V310.028H263.395V312.044H260.819V317H258.579ZM274.103 317.364C269.707 317.364 266.627 314.032 266.627 309.72C266.627 305.408 269.791 302.076 274.075 302.076C277.239 302.076 280.179 303.98 280.963 307.228H278.667C278.079 305.324 276.231 304.092 274.131 304.092C271.023 304.092 268.923 306.556 268.923 309.72C268.923 312.996 271.135 315.348 274.187 315.348C276.287 315.348 278.163 314.116 278.723 312.212H280.991C280.235 315.46 277.267 317.364 274.103 317.364ZM286.934 317L293.906 299.64V299.472H284.218V297.4H296.258V299.332L289.342 317H286.934Z" fill="#474F57"/>
<rect width="247" height="38" transform="translate(155 337)" fill="#0564FF"/>
<path d="M248.469 357.422H249.729C249.736 357.867 249.91 358.236 250.25 358.529C250.59 358.822 251.043 358.969 251.609 358.969C252.113 358.969 252.518 358.861 252.822 358.646C253.127 358.428 253.279 358.131 253.279 357.756C253.279 357.514 253.227 357.307 253.121 357.135C253.02 356.963 252.881 356.828 252.705 356.73C252.529 356.629 252.328 356.543 252.102 356.473C251.875 356.402 251.635 356.338 251.381 356.279C251.131 356.221 250.879 356.158 250.625 356.092C250.375 356.021 250.137 355.93 249.91 355.816C249.684 355.699 249.482 355.559 249.307 355.395C249.131 355.227 248.99 355.006 248.885 354.732C248.783 354.459 248.732 354.143 248.732 353.783C248.732 353.123 248.984 352.568 249.488 352.119C249.996 351.67 250.68 351.445 251.539 351.445C251.906 351.445 252.256 351.496 252.588 351.598C252.924 351.699 253.229 351.85 253.502 352.049C253.779 352.244 254 352.508 254.164 352.84C254.332 353.168 254.418 353.543 254.422 353.965H253.109C253.109 353.547 252.971 353.217 252.693 352.975C252.42 352.729 252.031 352.605 251.527 352.605C251.039 352.605 250.664 352.717 250.402 352.939C250.145 353.162 250.016 353.436 250.016 353.76C250.016 353.975 250.068 354.16 250.174 354.316C250.279 354.469 250.42 354.59 250.596 354.68C250.771 354.77 250.975 354.848 251.205 354.914C251.436 354.98 251.678 355.045 251.932 355.107C252.186 355.166 252.439 355.232 252.693 355.307C252.947 355.377 253.189 355.473 253.42 355.594C253.65 355.715 253.854 355.861 254.029 356.033C254.205 356.201 254.346 356.424 254.451 356.701C254.557 356.979 254.609 357.299 254.609 357.662C254.609 358.389 254.336 358.986 253.789 359.455C253.246 359.924 252.504 360.158 251.562 360.158C250.66 360.158 249.918 359.904 249.336 359.396C248.758 358.885 248.469 358.227 248.469 357.422ZM256.121 360V351H257.369V354.562H257.451C257.596 354.281 257.83 354.045 258.154 353.854C258.479 353.662 258.861 353.566 259.303 353.566C260.002 353.566 260.562 353.795 260.984 354.252C261.406 354.705 261.617 355.277 261.617 355.969V360H260.357V356.209C260.357 355.779 260.219 355.428 259.941 355.154C259.668 354.881 259.33 354.744 258.928 354.744C258.498 354.744 258.133 354.891 257.832 355.184C257.531 355.473 257.381 355.838 257.381 356.279V360H256.121ZM262.988 356.865C262.988 356.244 263.129 355.682 263.41 355.178C263.695 354.674 264.092 354.279 264.6 353.994C265.107 353.709 265.678 353.566 266.311 353.566C266.943 353.566 267.512 353.711 268.016 354C268.523 354.289 268.916 354.686 269.193 355.189C269.475 355.689 269.615 356.248 269.615 356.865C269.615 357.482 269.473 358.043 269.188 358.547C268.906 359.047 268.512 359.441 268.004 359.73C267.496 360.016 266.928 360.158 266.299 360.158C265.338 360.158 264.545 359.848 263.92 359.227C263.299 358.602 262.988 357.814 262.988 356.865ZM264.271 356.865C264.271 357.49 264.461 358.006 264.84 358.412C265.223 358.814 265.709 359.016 266.299 359.016C266.893 359.016 267.379 358.812 267.758 358.406C268.141 358 268.332 357.486 268.332 356.865C268.332 356.24 268.141 355.727 267.758 355.324C267.379 354.922 266.893 354.721 266.299 354.721C265.705 354.721 265.219 354.924 264.84 355.33C264.461 355.732 264.271 356.244 264.271 356.865ZM271.133 362.76V353.725H272.357V354.621H272.439C272.49 354.547 272.541 354.477 272.592 354.41C272.646 354.344 272.736 354.256 272.861 354.146C272.986 354.033 273.117 353.938 273.254 353.859C273.395 353.781 273.57 353.713 273.781 353.654C273.996 353.596 274.221 353.566 274.455 353.566C275.361 353.566 276.096 353.869 276.658 354.475C277.221 355.08 277.502 355.869 277.502 356.842C277.502 357.814 277.225 358.611 276.67 359.232C276.115 359.85 275.402 360.158 274.531 360.158C274.246 360.158 273.979 360.119 273.729 360.041C273.482 359.963 273.275 359.863 273.107 359.742C272.943 359.621 272.811 359.508 272.709 359.402C272.607 359.293 272.525 359.188 272.463 359.086H272.393V362.76H271.133ZM272.357 356.854C272.357 357.514 272.539 358.039 272.902 358.43C273.27 358.82 273.736 359.016 274.303 359.016C274.869 359.016 275.33 358.814 275.686 358.412C276.041 358.006 276.219 357.486 276.219 356.854C276.219 356.201 276.041 355.682 275.686 355.295C275.334 354.904 274.865 354.709 274.279 354.709C273.693 354.709 273.227 354.914 272.879 355.324C272.531 355.73 272.357 356.24 272.357 356.854ZM281.867 355.799C281.867 355.189 281.977 354.617 282.195 354.082C282.414 353.543 282.715 353.08 283.098 352.693C283.48 352.307 283.941 352.002 284.48 351.779C285.023 351.557 285.605 351.445 286.227 351.445C287.23 351.445 288.09 351.719 288.805 352.266C289.523 352.812 290.008 353.535 290.258 354.434H288.863C288.68 353.883 288.35 353.451 287.873 353.139C287.396 352.826 286.848 352.67 286.227 352.67C285.664 352.67 285.152 352.807 284.691 353.08C284.23 353.35 283.869 353.725 283.607 354.205C283.346 354.682 283.215 355.213 283.215 355.799C283.215 356.701 283.502 357.449 284.076 358.043C284.65 358.637 285.367 358.934 286.227 358.934C286.848 358.934 287.395 358.779 287.867 358.471C288.34 358.162 288.672 357.732 288.863 357.182H290.281C290.043 358.08 289.559 358.801 288.828 359.344C288.102 359.887 287.234 360.158 286.227 360.158C285.605 360.158 285.023 360.049 284.48 359.83C283.938 359.607 283.475 359.305 283.092 358.922C282.713 358.535 282.414 358.072 282.195 357.533C281.977 356.994 281.867 356.416 281.867 355.799ZM292.227 359.25C291.664 358.645 291.383 357.855 291.383 356.883C291.383 355.91 291.662 355.115 292.221 354.498C292.779 353.877 293.496 353.566 294.371 353.566C294.652 353.566 294.916 353.605 295.162 353.684C295.408 353.762 295.613 353.863 295.777 353.988C295.945 354.113 296.078 354.229 296.176 354.334C296.273 354.436 296.355 354.537 296.422 354.639H296.51V353.725H297.77V360H296.533V359.109H296.457C295.961 359.809 295.285 360.158 294.43 360.158C293.527 360.158 292.793 359.855 292.227 359.25ZM292.666 356.865C292.666 357.514 292.844 358.035 293.199 358.43C293.559 358.82 294.029 359.016 294.611 359.016C295.197 359.016 295.666 358.811 296.018 358.4C296.369 357.99 296.545 357.479 296.545 356.865C296.545 356.205 296.361 355.684 295.994 355.301C295.631 354.914 295.166 354.721 294.6 354.721C294.029 354.721 293.564 354.922 293.205 355.324C292.846 355.723 292.666 356.236 292.666 356.865ZM299.586 360V353.725H300.799V354.814H300.881C300.99 354.525 301.195 354.27 301.496 354.047C301.797 353.824 302.152 353.713 302.562 353.713H303.113V354.938H302.527C302.004 354.938 301.592 355.117 301.291 355.477C300.994 355.836 300.846 356.312 300.846 356.906V360H299.586ZM304.074 354.756V353.736H304.9C305.01 353.736 305.1 353.699 305.17 353.625C305.24 353.551 305.275 353.451 305.275 353.326V351.949H306.459V353.725H308.287V354.756H306.459V357.973C306.459 358.613 306.764 358.934 307.373 358.934H308.223V360H307.18C306.555 360 306.068 359.83 305.721 359.49C305.373 359.146 305.199 358.652 305.199 358.008V354.756H304.074Z" fill="white"/>
<defs>
<filter id="filter0_d_1146_236" x="139" y="156" width="281" height="255" filterUnits="userSpaceOnUse" color-interpolation-filters="sRGB">
<feFlood flood-opacity="0" result="BackgroundImageFix"/>
<feColorMatrix in="SourceAlpha" type="matrix" values="0 0 0 0 0 0 0 0 0 0 0 0 0 0 0 0 0 0 127 0" result="hardAlpha"/>
<feOffset dy="4"/>
<feGaussianBlur stdDeviation="2"/>
<feComposite in2="hardAlpha" operator="out"/>
<feColorMatrix type="matrix" values="0 0 0 0 0 0 0 0 0 0 0 0 0 0 0 0 0 0 0.25 0"/>
<feBlend mode="normal" in2="BackgroundImageFix" result="effect1_dropShadow_1146_236"/>
<feBlend mode="normal" in="SourceGraphic" in2="effect1_dropShadow_1146_236" result="shape"/>
</filter>
<clipPath id="clip0_1146_236">
<rect width="18" height="18" fill="white" transform="translate(349 164)"/>
</clipPath>
<clipPath id="clip1_1146_236">
<rect width="18" height="18" fill="white" transform="translate(383 164)"/>
</clipPath>
<clipPath id="clip2_1146_236">
<rect width="24" height="24" fill="white" transform="translate(161 201)"/>
</clipPath>
</defs>
</svg>
